<?xml version="1.0" encoding="utf-8"?>
<!-- Generator: Adobe Illustrator 24.1.2, SVG Export Plug-In . SVG Version: 6.00 Build 0)  -->
<svg version="1.1" id="Layer_1" xmlns="http://www.w3.org/2000/svg" xmlns:xlink="http://www.w3.org/1999/xlink" x="0px" y="0px"
	 viewBox="0 0 187.2 187.2" style="enable-background:new 0 0 187.2 187.2;" xml:space="preserve">
<style type="text/css">
	.st0{fill:#38547C;}
	.st1{fill:#F8B241;}
	.st2{fill:#F9F4F4;}
	.st3{fill:#F48876;}
	.st4{fill:#D63434;}
	.st5{fill:#F4DBD9;}
	.st6{fill:#F79843;}
	.st7{fill:#EAD1D0;}
</style>
<g id="Layer_2_1_">
</g>
<g>
	<g>
		<g>
			<path class="st0" d="M94.36,42.43c-32.71,0-59.23,26.52-59.23,59.23c0,25.71,16.38,47.58,39.27,55.77
				c-0.71,0.97-1.14,2.16-1.14,3.46c0,3.23,2.62,5.86,5.86,5.86s5.86-2.62,5.86-5.86c0-0.26-0.02-0.51-0.05-0.76
				c3.07,0.49,6.22,0.76,9.44,0.76c32.71,0,59.23-26.52,59.23-59.23C153.59,68.95,127.07,42.43,94.36,42.43z"/>
			<circle class="st0" cx="115.91" cy="26.61" r="5.86"/>
		</g>
		<circle class="st0" cx="24.39" cy="68.94" r="3.9"/>
	</g>
	<g>
		<path class="st1" d="M100.13,132.11l10.1,8.56c2.25-0.42,4.45-1.03,6.57-1.81l-31.11-78.2c-11.21,4.75-20.57,15.12-25,27.09
			c0.61,1.28,1.16,2.45,1.58,3.43l-1.87-2.6c-2.73,7.83-3.35,16.29-0.99,24.31c4.12,0.13,8.66,0.29,8.66,0.29s-3.41,0.84-8,1.72
			c0.13,0.36,0.25,0.72,0.39,1.08c3.45,8.66,10.08,15.29,18.09,19.61c3.42-3.34,6.74-7.38,6.74-7.38c-1.37,2.44-3.22,5.41-5.05,8.24
			c7.67,3.74,16.43,5.44,24.79,4.87L100.13,132.11z"/>
		<path class="st2" d="M131.19,87.84c-1.09-2.74-2.37-5.33-3.81-7.75l-5.46,7.93c-0.21,0.32-0.32,0.47-0.32,0.47l0.32-0.47
			c0.67-1.03,2.3-3.94,4.22-9.9c-10.06-15.34-26.6-23-40.46-17.49C69.14,67.21,62.7,90.06,71.3,111.67
			c2.94,7.39,7.26,13.68,12.33,18.49c1.01-1.16,1.66-1.95,1.66-1.95c-0.4,0.71-0.84,1.48-1.32,2.26
			c6.16,5.73,13.41,9.29,20.63,10.03l-4.46-8.4l9.91,8.4c2.3-0.23,4.56-0.76,6.76-1.63c9.12-3.63,15.16-12.21,17.31-22.8
			c-9.09-1.37-14.99-2.9-14.99-2.9s15.08-0.52,15.2-0.48l0.33,0.08C135.61,104.98,134.56,96.32,131.19,87.84z"/>
		<path class="st3" d="M40.78,85.06c5.31-1.15,11.37-2.13,18.01-2.9c0.44-0.55,0.36-0.51,0.76-0.98
			c-6.82,0.83-13.02,1.48-18.77,2.65V85.06z"/>
		<path d="M109.22,121.47"/>
		<path class="st4" d="M121.82,99.07"/>
		<path class="st4" d="M105.36,134.09"/>
		<circle class="st3" cx="140.65" cy="134.96" r="2.32"/>
		<circle class="st3" cx="31.72" cy="87.23" r="2.73"/>
		<path class="st4" d="M59.75,88.49"/>
		<path class="st4" d="M121.6,88.49"/>
		<circle class="st3" cx="69.76" cy="20.55" r="4.84"/>
		<circle class="st3" cx="109.72" cy="168.23" r="3.26"/>
		<circle class="st3" cx="165.55" cy="58.85" r="2.84"/>
		<path class="st3" d="M85.04,65.16c-2.05,1.06-3.9,2.42-5.55,4.02c-0.63,0.62-0.59,1.87,0.1,2.71l17.52,21.64
			c0.39,0.48,0.95,0.07,0.71-0.52l-10.6-26.66C86.81,65.32,85.8,64.77,85.04,65.16z"/>
		<path class="st3" d="M96.33,94.81L78.66,72.99c-0.68-0.85-1.72-0.92-2.25-0.17c-1.47,2.09-2.67,4.43-3.6,6.97
			c-0.34,0.92,0.11,2.14,0.96,2.65l22.11,13.22C96.37,95.95,96.72,95.28,96.33,94.81z"/>
		<path class="st3" d="M95.28,97.08L73.35,83.97c-0.86-0.51-1.76-0.1-1.97,0.9c-0.54,2.62-0.81,5.37-0.8,8.2
			c0,1.07,0.77,2.08,1.67,2.2l22.93,2.87C95.68,98.2,95.77,97.37,95.28,97.08z"/>
		<path class="st3" d="M96.22,102.71l-20.41,8.12c-0.8,0.32-1.07,1.46-0.6,2.47c1.27,2.72,2.76,5.26,4.41,7.58
			c0.64,0.89,1.68,1.07,2.26,0.39l14.91-17.58C97.12,103.3,96.68,102.53,96.22,102.71z"/>
		<path class="st3" d="M119.24,74.16c-2.03-2.2-4.22-4.11-6.52-5.73c-0.83-0.58-1.78-0.26-2.05,0.7l-6.99,24.79
			c-0.15,0.54,0.47,1.09,0.8,0.7l15.03-17.72C120.1,76.21,119.97,74.94,119.24,74.16z"/>
		<path class="st3" d="M102.38,92.9l6.93-24.59c0.27-0.96-0.25-2.15-1.12-2.59c-2.3-1.15-4.66-1.99-7.04-2.51
			c-0.9-0.2-1.61,0.56-1.53,1.65l1.85,27.73C101.51,93.19,102.23,93.44,102.38,92.9z"/>
		<path class="st3" d="M100.06,92.62L98.2,64.67c-0.07-1.08-0.89-2.03-1.78-2.06c-2.42-0.08-4.82,0.21-7.15,0.87
			c-0.83,0.24-1.18,1.33-0.77,2.37l10.69,26.87C99.42,93.32,100.1,93.23,100.06,92.62z"/>
		<path class="st3" d="M95.48,99.89L72.36,97c-0.89-0.11-1.54,0.72-1.4,1.81c0.39,2.96,1.07,5.97,2.06,8.98
			c0.35,1.06,1.33,1.7,2.13,1.39l20.57-8.18C96.18,100.81,95.98,99.95,95.48,99.89z"/>
		<path class="st3" d="M107.01,99.62l23.12,2.89c0.9,0.11,1.54-0.72,1.4-1.81c-0.39-2.96-1.07-5.97-2.06-8.98
			c-0.35-1.06-1.33-1.7-2.13-1.39l-20.57,8.18C106.31,98.7,106.51,99.56,107.01,99.62z"/>
		<path class="st3" d="M104.66,106.49l10.6,26.66c0.41,1.04,1.42,1.59,2.18,1.2c2.05-1.06,3.9-2.42,5.55-4.02
			c0.63-0.62,0.59-1.87-0.1-2.71l-17.53-21.64C104.98,105.49,104.42,105.9,104.66,106.49z"/>
		<path class="st3" d="M98,104.89l-15.03,17.72c-0.58,0.69-0.46,1.95,0.27,2.74c2.03,2.2,4.22,4.11,6.52,5.73
			c0.83,0.58,1.78,0.26,2.05-0.7l6.99-24.79C98.95,105.05,98.33,104.51,98,104.89z"/>
		<path class="st3" d="M102.43,106.89l1.86,27.95c0.07,1.08,0.89,2.03,1.78,2.06c2.42,0.08,4.82-0.21,7.15-0.87
			c0.83-0.24,1.18-1.33,0.77-2.37l-10.69-26.87C103.07,106.19,102.39,106.28,102.43,106.89z"/>
		
			<ellipse transform="matrix(0.9292 -0.3696 0.3696 0.9292 -29.6999 44.4822)" class="st5" cx="101.24" cy="99.76" rx="4.42" ry="5.91"/>
		
			<ellipse transform="matrix(0.8003 -0.5996 0.5996 0.8003 -59.0089 64.5812)" class="st6" cx="67.45" cy="120.88" rx="0.92" ry="1.16"/>
		
			<ellipse transform="matrix(0.9994 -0.0341 0.0341 0.9994 -3.3005 2.2243)" class="st6" cx="63.49" cy="97.78" rx="0.82" ry="1.58"/>
		
			<ellipse transform="matrix(0.9994 -0.0341 0.0341 0.9994 -3.3549 2.247)" class="st6" cx="64.13" cy="99.38" rx="0.37" ry="0.71"/>
		
			<ellipse transform="matrix(0.6199 -0.7847 0.7847 0.6199 -73.1118 109.1474)" class="st6" cx="76.11" cy="130.04" rx="0.58" ry="1.16"/>
		
			<ellipse transform="matrix(0.9292 -0.3696 0.3696 0.9292 -29.6999 44.4822)" class="st7" cx="101.24" cy="99.76" rx="2.7" ry="3.92"/>
		<path class="st3" d="M68.07,113.18c-0.09-0.01-0.17-0.02-0.25-0.02c-2.85-0.16-7.15-0.68-7.15-0.68
			c-25.42-2.74-42.95-8.54-42.95-15.26c0-4.77,8.84-9.08,23.07-12.16v-1.23c-0.93,0.19-1.84,0.38-2.74,0.59
			c-17.95,4.17-26.5,8.76-26.38,15.25C11.83,109.26,33.17,114.86,68.07,113.18L68.07,113.18z"/>
		<path class="st3" d="M58.6,149.77c-3.06,2.17-6.32,4.05-9.76,5.54c-6.27,2.71-8.68,2.27-10.86,0.31c-4-3.6-0.57-14.6,8.07-29.06
			l0,0l0.03-0.06c0.66-1.1,1.35-2.22,2.06-3.36l3.09-5.03c-3.53,4.84-8.65,12.37-11,16.21c-8.47,13.84-11.62,24.63-7.38,28.89
			c6.17,6.19,23.41-4.48,44.6-25.67c2.46-2.41,5.73-6.57,7.83-9.35C80.83,133.73,65.68,144.76,58.6,149.77z"/>
		<g>
			<path class="st3" d="M104.25,57.21c0.54,0.16,1.08,0.34,1.61,0.52c2.59-2.16,5.12-4.18,7.54-6c0.87,0.52,1.96,0.63,2.96,0.19
				c1.42-0.63,2.15-2.17,1.83-3.63c11.12-7.62,19.68-10.74,23.18-7.59c4.34,3.9-0.07,16.52-10.39,32.81l0,0l-9.37,14.96l0,0
				c0,0,0,0.01-0.01,0.01l0,0c22.78-27.81,34.13-50.34,26.31-56.36c-4.84-3.72-15.22,0.74-27.99,10.9h0c-1.19,0.95-2.41,1.96-3.64,3
				c-0.79-0.33-1.7-0.35-2.54,0.02c-1.47,0.65-2.19,2.27-1.78,3.77C109.45,52.11,106.87,54.58,104.25,57.21z"/>
		</g>
		<path class="st3" d="M75.39,55.5c-4.85-4.76-9.55-8.96-13.96-12.47h0c-12.77-10.16-23.15-14.62-27.99-10.9
			c-7.82,6.02,3.53,28.54,26.31,56.36l0,0c0,0,0,0,0,0l0,0l5.28,6.3l-6.53-9.37C42.57,63.58,34.64,45.51,39.99,40.7
			c4.61-4.15,18,2.58,34.47,16.15c1.49,1.23,3.02,2.53,4.56,3.87c0.33-0.2,0.66-0.39,0.98-0.58C78.45,58.55,76.91,56.99,75.39,55.5z
			"/>
		<g>
			<path class="st3" d="M141.12,134.33c-1.45-2.37-3.96-6.16-6.5-9.84c-0.08,0.18-0.15,0.37-0.23,0.55
				c9.32,15.2,13.13,26.86,8.99,30.59c-4.9,4.41-19.73-3.47-37.63-18.81c-3.65-3.06-7.2-7.01-7.2-7.01c0.03,0.05,0.06,0.1,0.09,0.15
				c2.5,4.14,5.54,7.94,9.02,11.29c19.45,18.71,35.04,27.8,40.84,21.98C152.74,158.96,149.59,148.17,141.12,134.33z"/>
		</g>
		<g>
			<path class="st3" d="M131.43,112.77c0.31-2.05,0.48-4.17,0.47-6.34c0-1.07-0.77-2.08-1.67-2.2l-22.93-2.87
				c-0.51-0.06-0.59,0.77-0.1,1.06l17.66,10.56C127.11,112.91,129.58,112.83,131.43,112.77z"/>
			<path class="st3" d="M128.49,115.15l0.65,0.39c0.52,0.31,1.06,0.28,1.45-0.02C129.86,115.39,129.16,115.27,128.49,115.15z"/>
		</g>
		<path class="st3" d="M128.71,117.07l-4.64-2.77c-3.13-0.65-4.94-1.11-4.94-1.11s1.19-0.04,2.91-0.1l-15.44-9.23
			c-0.48-0.29-0.83,0.37-0.44,0.85l17.67,21.81c0.68,0.85,1.72,0.92,2.25,0.17c1.47-2.09,2.67-4.43,3.6-6.97
			C130.01,118.81,129.56,117.58,128.71,117.07z"/>
		<path class="st3" d="M125.51,82.81l-3.58,5.21c-0.21,0.32-0.32,0.47-0.32,0.47l0.32-0.47c0.51-0.8,1.61-2.71,2.96-6.28
			c-0.64-1.07-1.31-2.12-2.02-3.11c-0.64-0.89-1.68-1.07-2.26-0.39L105.7,95.82c-0.33,0.39,0.12,1.15,0.57,0.97l20.41-8.12
			c0.8-0.32,1.07-1.46,0.6-2.47C126.72,85.04,126.13,83.91,125.51,82.81z"/>
		<path class="st3" d="M100.13,132.11l2.71,2.3l-1.83-27.47c-0.04-0.61-0.75-0.87-0.91-0.32l-6.93,24.59
			c-0.27,0.96,0.25,2.15,1.12,2.59c2.3,1.15,4.66,1.99,7.03,2.51c0.36,0.08,0.68,0,0.94-0.18L100.13,132.11z"/>
		<path class="st3" d="M149.16,84.43c-3.73-0.87-7.75-1.44-12.01-2.05c-1.98-0.28-3.97-0.48-5.96-0.59l0.6,0.94l1.88,0.16
			c0.7,0.06,1.41,0.14,2.11,0.25c20.33,3.04,33.71,8.21,33.71,14.08c0,7.3-20.71,13.52-49.73,15.9h0.28
			c-0.22,0.01-0.43,0.03-0.65,0.04c-0.09,0.01-0.17,0.02-0.25,0.02v0c34.9,1.68,56.24-3.92,56.41-13.51
			C175.65,93.18,167.1,88.59,149.16,84.43z"/>
	</g>
</g>
</svg>
