<?xml version="1.0" encoding="utf-8"?>
<!-- Generator: Adobe Illustrator 24.1.2, SVG Export Plug-In . SVG Version: 6.00 Build 0)  -->
<svg version="1.1" id="Layer_1" xmlns="http://www.w3.org/2000/svg" xmlns:xlink="http://www.w3.org/1999/xlink" x="0px" y="0px"
	 viewBox="0 0 581.8 755.45" style="enable-background:new 0 0 581.8 755.45;" xml:space="preserve">
<style type="text/css">
	.st0{fill:#D63434;}
	.st1{fill:#DBB449;}
</style>
<g>
	<g>
		<path class="st0" d="M362.6,290.29c98,4.7,157.9-11,158.3-37.9c0.3-18.2-23.7-31.1-74.1-42.8c-12.9-3-26.9-4.7-41.9-6.9
			c0.5,1,1,1.9,1.4,2.9c58.7,8.5,97.6,23.2,97.6,40c0,18.2-45.6,33.9-112.7,41.9c0.7-2.6,1.4-5.3,2-8c2.8-0.5,5.6-1.1,8.4-1.9
			l2.3-0.6l0.6-2.3c2.1-8.1,3.2-16.4,3.2-24.8c0-20.6-6.4-39.6-17.4-55.3c49.7-65.6,72.4-116.8,53-131.7
			c-13.6-10.4-42.7,2.1-78.6,30.6c-3.3,2.7-6.7,5.5-10.2,8.4c-1.1-0.4-2.2-0.7-3.5-0.7c-5,0-9,4-9,9c0,0.8,0.1,1.6,0.3,2.4
			c-10.2,9.3-20.8,19.6-31.6,30.9c0.9,0.5,1.7,1,2.6,1.4c11.5-10.1,22.6-19.1,33-27c1.4,0.8,2.9,1.3,4.6,1.3c5,0,9-4,9-9
			c0-0.7-0.1-1.3-0.2-1.9c31.2-21.4,55.2-30.1,65.1-21.3c12.2,10.9-0.2,46.4-29.2,92.1l-26.3,42l0,0c5.4-6.6,10.6-13.1,15.5-19.5
			c9.1,13.8,14.4,30.4,14.4,48.3c0,6.8-0.8,13.6-2.3,20.3c-6.5,1.6-13.2,2.4-19.9,2.4c-21,0-40.3-7.7-55.2-20.5
			c11.8-15,18.4-33,18.4-51.6c0-17.4-5.5-28.4-14.8-37c22.4,3.2,42.1,15.2,55.5,32.5c1-2.9,2-6,3-9.4
			c-17.3-19.8-42.5-32.3-70.5-32.3c-0.2,0-0.5,0-0.7,0c-6.3-3.8-13.4-7.3-21.1-11.1l-7-3.5v9.3l3.3,1.6
			c27.4,13.5,43.9,21.6,43.9,49.8c0,29.1-18,56.4-47.2,71.7v-28l0,0v-95.1l-3.3,1.6c-4.8,2.4-9.3,4.6-13.4,6.8l0,0l0,0
			c-0.4,0.2-0.9,0.5-1.3,0.7l0,0l0,0c-18.5,9.9-29.2,19.7-29.2,42.3c0,20.5,8.9,40,24.3,55.1l0,0c2.7,2.7,5.7,5.2,8.8,7.6
			c0.2,0.1,0.3,0.2,0.5,0.4c1,0.7,2,1.5,3,2.2c0,0,0,0,0.1,0c1,0.7,2.1,1.4,3.2,2.1c0.2,0.1,0.5,0.3,0.7,0.4c0.8,0.5,1.7,1,2.5,1.5
			c0.3,0.2,0.6,0.3,0.9,0.5c1.1,0.6,2.2,1.2,3.3,1.8v9.4l-1.9-0.9c-11.6-5.8-21.7-13.3-29.9-22.1c-5.4,4.6-11.2,8.6-17.5,11.9
			c6.3,30.8,23.8,58.1,49.3,76.1v5.1l0,0v5l2.3-1.6c12.7-8.5,23.7-19.2,32.5-31.4c3.3,5.6,6.8,10.8,10.7,15.6
			c-2.9,6.8-6.4,13.3-10.3,19.5l0,0l0,0c59.5,59.5,107.9,89.4,125.2,72c11.3-11.3,3.9-39.1-17.1-75.1c1-1.1,1.6-2.6,1.6-4.3
			c0-3.6-2.9-6.5-6.5-6.5c-0.5,0-1,0.1-1.5,0.2c-7.3-11.5-19.4-29.1-28-40.9c-0.1,0.2-0.1,0.3-0.2,0.5c10.1,15.1,18.6,29.2,25.3,42
			c-1.3,1.2-2.1,2.9-2.1,4.8c0,3.6,2.9,6.5,6.5,6.5c0.4,0,0.7,0,1.1-0.1c11.8,25.5,14.8,44.2,6.6,51.6
			c-13.4,12.1-53.3-8.6-101.7-49.5c2.7-4.5,5.1-9,7.3-13.8l0,0c2.9,3,5.8,5.9,9,8.5l2.7,2.3l2.7-2.3c17.3-14.5,30.4-35.1,38.2-58.8
			c-3-0.5-5.8-1.1-8.3-1.6c-6.9,20.6-18.1,38.5-32.6,51.6c-9-8.1-16.8-18.3-23.2-30.1c7.9-12.8,13.7-26.9,17-41.9l0,0
			c10.9,4.5,22.9,7,35.4,7c2.4,0,4.8-0.1,7.2-0.3l0,0l0,0c-0.6,2.7-1.3,5.3-2.1,7.9c-5.8,0.6-11.8,1.2-17.9,1.7h0.8
			c-0.6,0-1.2,0.1-1.8,0.1C363,290.19,362.8,290.29,362.6,290.29z M284.6,346.29v-65l1.9-0.9c11.6-5.8,21.7-13.3,29.9-22.1
			c5.4,4.6,11.2,8.6,17.5,11.9l0,0l0,0c-3.2,15.3-9.1,29.9-17.6,43.1l-0.9,1.5C307.2,326.89,296.8,337.69,284.6,346.29z"/>
		<circle class="st0" cx="224" cy="30.29" r="13.6"/>
		<ellipse class="st0" cx="336.11" cy="444.76" rx="9.1" ry="9.1"/>
		<circle class="st0" cx="492.8" cy="137.79" r="8"/>
		<path class="st0" d="M284.6,395.19v-38.7l-2.3-1.6c-12.7-8.5-23.6-19.2-32.5-31.4c-3.3,5.8-7,11.1-11,16c-1.9,2.3-3.8,4.5-5.8,6.6
			c1.8,4,3.8,7.8,6,11.6c-49.6,42.3-90.7,64-104.3,51.7c-11.2-10.1-1.6-41,22.7-81.6l0.1-0.2c1.8-3.1,3.8-6.2,5.8-9.4l8.7-14.1
			c-9.9,13.6-24.3,34.7-30.9,45.5c-23.8,38.8-32.6,69.1-20.7,81.1c16.9,17,63.7-11.4,121.5-68.4l0,0l5.9-5.5l10.5-9.8
			c0,0-3.5,5.2-8.7,12.4c-0.1,0.1-0.2,0.3-0.3,0.4c-0.3,0.4-0.6,0.8-0.8,1.2c-0.1,0.2-0.3,0.4-0.4,0.6c-0.3,0.4-0.5,0.7-0.8,1.1
			c-0.9,1.2-1.7,2.4-2.7,3.7c10,14.6,22.7,27.3,37.8,37.3l2.3,1.5l2.3-1.5c14.4-9.5,26.6-21.5,36.4-35.3l-4.2-8.6
			C310,373.49,298.4,385.59,284.6,395.19z"/>
		<path class="st0" d="M260,151.99c0.6-0.3,1.2-0.7,1.8-1l-5.1-5.3c-5.7-6-11.4-11.8-17-17.3c-0.9,1.3-1.8,2.6-2.6,3.8
			C244.6,138.29,252.2,144.89,260,151.99z"/>
		<path class="st0" d="M169.9,249.79c0,6.8,0.8,13.7,2.3,20.3c6.5,1.6,13.2,2.4,19.9,2.4c21,0,40.3-7.7,55.2-20.5
			c0.1,0.1,0.2,0.2,0.2,0.3c-11.9-15.1-18.6-33.1-18.6-51.9c0-17.5,5.6-28.6,15.1-37.2c-0.1,0.1-0.1,0.1-0.2,0.2
			c-22.7,3.2-42.6,15.6-56,33.2c5.3,11.3,10.6,21.8,14,29.4l-9.4-13.7c-44.7-61.3-67-112-52-125.5c13-11.7,50.5,7.2,96.8,45.3
			c0.9-1.3,1.7-2.5,2.6-3.8c-13.6-13.4-26.8-25.1-39.2-35c-35.9-28.5-65-41-78.6-30.6c-20.4,15.7,5.6,71.2,60.5,141.5
			C174.5,217.49,169.9,233.09,169.9,249.79z"/>
		<path class="st0" d="M210.9,290.59c-2.8,1-11,4-21.1,6.4c7,19.4,17.7,36.3,31.6,48.8c9-8.2,16.8-18.3,23.2-30.2
			c-8-12.9-13.8-27.1-17-41.9c0.1,0,0.2-0.1,0.2-0.1c-11,4.6-23,7.1-35.7,7.1c-2.5,0-5-0.1-7.5-0.3c0.1,0,0.2,0,0.3,0
			c0.5,2.1,1.1,4.3,1.7,6.4c-64.9-8.2-108.7-23.7-108.7-41.4c0-9.2,11.8-17.8,32.2-25.1c1.1,2.8,3.9,4.8,7.1,4.8
			c4.2,0,7.7-3.4,7.7-7.7c0-0.6-0.1-1.1-0.2-1.7c5.6-1.5,11.6-3,18-4.4l0,0c9-2,18.9-3.7,29.3-5.3c0.5-1.1,1.1-2.1,1.7-3.2
			c-10.9,1.5-21.3,3.1-31,5.1l0,0c-2.6,0.5-5.2,1.1-7.7,1.7c-4.1,1-8.1,1.9-11.9,2.9c-1.4-1.7-3.5-2.7-5.9-2.7c-3.8,0-7,2.8-7.6,6.5
			c-33.1,10-49,21.3-48.7,36.1C61.4,278.49,117.9,294.09,210.9,290.59z"/>
	</g>
</g>
<g>
	<g>
		<path class="st1" d="M11.08,564.57c0-5.37,0.99-10.36,2.97-14.99c1.98-4.63,4.73-8.67,8.24-12.12c3.51-3.45,7.71-6.15,12.6-8.1
			c4.89-1.95,10.27-2.92,16.14-2.92c5.81,0,11.17,0.97,16.09,2.92c4.92,1.95,9.15,4.65,12.69,8.1c3.54,3.45,6.31,7.49,8.29,12.12
			c1.98,4.63,2.97,9.63,2.97,14.99c0,4.98-0.81,9.61-2.44,13.89c-1.63,4.28-3.98,8.08-7.04,11.4l12.26,12.84l-17.24,2.68l-6.61-6.8
			c-2.81,1.28-5.8,2.28-8.96,3.02c-3.16,0.73-6.5,1.1-10.01,1.1c-5.88,0-11.26-0.97-16.14-2.92s-9.09-4.65-12.6-8.1
			c-3.51-3.45-6.26-7.49-8.24-12.12C12.07,574.93,11.08,569.93,11.08,564.57z M30.72,564.57c0,2.87,0.54,5.53,1.63,7.95
			c1.09,2.43,2.55,4.54,4.41,6.32c1.85,1.79,4.01,3.18,6.47,4.17c2.46,0.99,5.06,1.48,7.81,1.48c1.66,0,3.32-0.19,4.98-0.58
			l-10.73-11.3l17.72-2.2l4.98,5.27c2.3-3.19,3.45-6.9,3.45-11.11c0-2.87-0.54-5.52-1.63-7.95c-1.09-2.43-2.57-4.53-4.45-6.32
			c-1.88-1.79-4.06-3.18-6.51-4.17c-2.46-0.99-5.06-1.48-7.81-1.48c-2.75,0-5.35,0.5-7.81,1.48c-2.46,0.99-4.61,2.38-6.47,4.17
			c-1.85,1.79-3.32,3.9-4.41,6.32C31.26,559.04,30.72,561.7,30.72,564.57z"/>
		<path class="st1" d="M123.64,528.45v39.28c0,2.11,0.08,4.26,0.24,6.47c0.16,2.2,0.64,4.2,1.44,5.99c0.8,1.79,2.06,3.24,3.78,4.36
			c1.72,1.12,4.15,1.68,7.28,1.68c3.13,0,5.54-0.56,7.23-1.68c1.69-1.12,2.95-2.57,3.78-4.36c0.83-1.79,1.33-3.79,1.49-5.99
			c0.16-2.2,0.24-4.36,0.24-6.47v-39.28h18.68v41.86c0,11.24-2.57,19.45-7.71,24.62c-5.14,5.17-13.04,7.76-23.71,7.76
			c-10.67,0-18.58-2.59-23.76-7.76c-5.17-5.17-7.76-13.38-7.76-24.62v-41.86H123.64z"/>
		<path class="st1" d="M226.72,588.13h-26.82l-4.31,12.55h-20.02l27.49-72.23h20.5l27.49,72.23h-20.02L226.72,588.13z
			 M221.74,573.86l-8.43-24.04l-8.43,24.04H221.74z"/>
		<path class="st1" d="M261.2,600.68v-72.23h18.78l34.68,44.16v-44.16h18.68v72.23h-18.68l-34.68-44.16v44.16H261.2z"/>
		<path class="st1" d="M377.79,544.36v56.33h-18.78v-56.33h-15.42v-15.9h49.62v15.9H377.79z"/>
		<path class="st1" d="M422.23,528.45v39.28c0,2.11,0.08,4.26,0.24,6.47c0.16,2.2,0.64,4.2,1.44,5.99c0.8,1.79,2.06,3.24,3.78,4.36
			c1.72,1.12,4.15,1.68,7.28,1.68c3.13,0,5.54-0.56,7.23-1.68c1.69-1.12,2.95-2.57,3.78-4.36c0.83-1.79,1.33-3.79,1.49-5.99
			c0.16-2.2,0.24-4.36,0.24-6.47v-39.28h18.68v41.86c0,11.24-2.57,19.45-7.71,24.62c-5.14,5.17-13.04,7.76-23.71,7.76
			c-10.67,0-18.58-2.59-23.76-7.76c-5.17-5.17-7.76-13.38-7.76-24.62v-41.86H422.23z"/>
		<path class="st1" d="M480.19,600.68l12.26-72.23h18.58l14.46,38.51l14.37-38.51h18.58l12.26,72.23h-18.68l-6.23-41.58
			l-17.05,41.58h-7.47l-16.19-41.58l-6.23,41.58H480.19z"/>
		<path class="st1" d="M213.86,647.18v9.26c-2.64-1.29-4.85-1.93-6.64-1.93c-2.44,0-4.54,0.6-6.29,1.81s-3.2,3.06-4.33,5.57
			c-1.14,2.51-1.98,5.69-2.53,9.54s-0.82,8.4-0.82,13.65c0,18.89,4.84,28.34,14.51,28.34c1.68,0,3.72-0.53,6.09-1.58v9.46
			c-2.48,1.39-5.25,2.08-8.32,2.08c-15.49,0-23.23-12.65-23.23-37.95c0-13.67,1.89-23.84,5.67-30.52s9.57-10.01,17.36-10.01
			C208.21,644.9,211.05,645.66,213.86,647.18z"/>
		<path class="st1" d="M230.64,645.94h13.57c5.61,0,9.79,1.34,12.53,4.01c3.47,3.47,5.2,8.77,5.2,15.9c0,5.48-0.92,9.88-2.75,13.2
			c-1.83,3.32-4.45,5.38-7.85,6.17l14.07,37.21h-10.45l-14.02-37.45v37.45h-10.3V645.94z M240.95,679.83c4,0,6.82-0.92,8.47-2.77
			c1.65-1.85,2.48-4.97,2.48-9.36c0-2.38-0.17-4.41-0.52-6.09c-0.35-1.68-0.89-3.05-1.63-4.11c-0.74-1.06-1.7-1.83-2.87-2.33
			c-1.17-0.5-2.57-0.74-4.19-0.74h-1.73V679.83z"/>
		<path class="st1" d="M292.41,645.94h8.03l16.4,76.49h-10.21l-2.87-14.91H288.6l-2.92,14.91h-9.91L292.41,645.94z M302.27,699.54
			l-2.28-12.19c-1.52-8.29-2.76-17.14-3.71-26.55c-0.46,4.59-1.06,9.24-1.78,13.95c-0.73,4.71-1.59,9.7-2.58,14.99l-1.88,9.81
			H302.27z"/>
		<path class="st1" d="M330.99,645.94h27.54v8.72H341.3v24.18h15.56v8.72H341.3v34.88h-10.3V645.94z"/>
		<path class="st1" d="M370.52,645.94h33.54v9.02h-11.54v67.47h-10.11v-67.47h-11.89V645.94z"/>
	</g>
	<path class="st0" d="M491.7,695.69c-0.12,0-0.24,0-0.36-0.01c-4.05-0.18-7.54-3.25-9.32-8.24l-4.47-12.51
		c-1.04-2.9-2.82-4.71-4.64-4.71s-3.6,1.8-4.64,4.71l-4.47,12.51c-1.78,4.98-5.26,8.06-9.32,8.24c-3.88,0.17-7.4-2.39-9.44-6.85
		l-0.58-1.27c-1.03-2.26-2.57-3.66-4.1-3.75c-1.33-0.04-2.77,0.92-3.86,2.72l-2.7,4.47l-4.56-2.75l2.7-4.47
		c2.14-3.55,5.33-5.47,8.73-5.29c3.59,0.2,6.75,2.7,8.65,6.84l0.58,1.27c1.11,2.42,2.72,3.83,4.36,3.75
		c1.78-0.08,3.52-1.88,4.53-4.71l4.47-12.51c1.84-5.16,5.46-8.25,9.66-8.25c4.21,0,7.82,3.08,9.66,8.25l4.47,12.51
		c1.01,2.83,2.74,4.63,4.53,4.71c1.63,0.08,3.26-1.33,4.36-3.75l0.58-1.27c1.9-4.15,5.05-6.64,8.65-6.84
		c3.42-0.19,6.58,1.74,8.72,5.29l2.7,4.47l-4.56,2.75l-2.7-4.47c-1.09-1.81-2.47-2.78-3.86-2.72c-1.53,0.09-3.07,1.49-4.1,3.75
		l-0.58,1.27C498.8,693.16,495.42,695.69,491.7,695.69z"/>
	<path class="st0" d="M129.6,695.69c-0.12,0-0.24,0-0.36-0.01c-4.05-0.18-7.54-3.25-9.32-8.24l-4.47-12.51
		c-1.04-2.9-2.82-4.71-4.64-4.71s-3.6,1.8-4.64,4.71l-4.47,12.51c-1.78,4.98-5.26,8.06-9.32,8.24c-3.86,0.17-7.4-2.39-9.44-6.85
		l-0.58-1.27c-1.03-2.26-2.57-3.66-4.1-3.75c-1.37-0.06-2.77,0.92-3.86,2.72l-2.7,4.47l-4.56-2.75l2.7-4.47
		c2.14-3.55,5.3-5.48,8.73-5.29c3.59,0.2,6.75,2.7,8.65,6.84l0.58,1.27c1.11,2.42,2.73,3.84,4.36,3.75
		c1.78-0.08,3.52-1.88,4.53-4.71l4.47-12.51c1.84-5.16,5.46-8.25,9.66-8.25s7.82,3.08,9.66,8.25l4.47,12.51
		c1.01,2.83,2.74,4.63,4.53,4.71c1.66,0.09,3.26-1.33,4.36-3.75l0.58-1.27c1.9-4.15,5.05-6.64,8.65-6.84
		c3.4-0.18,6.58,1.74,8.73,5.29l2.7,4.47l-4.56,2.75l-2.7-4.47c-1.09-1.81-2.5-2.79-3.86-2.72c-1.53,0.09-3.07,1.49-4.1,3.75
		l-0.58,1.27C136.7,693.16,133.32,695.69,129.6,695.69z"/>
</g>
</svg>
