<?xml version="1.0" encoding="utf-8"?>
<!-- Generator: Adobe Illustrator 24.1.2, SVG Export Plug-In . SVG Version: 6.00 Build 0)  -->
<svg version="1.1" id="Layer_1" xmlns="http://www.w3.org/2000/svg" xmlns:xlink="http://www.w3.org/1999/xlink" x="0px" y="0px"
	 viewBox="0 0 187.2 187.2" style="enable-background:new 0 0 187.2 187.2;" xml:space="preserve">
<style type="text/css">
	.st0{fill:#38547C;}
	.st1{fill:#EABF0A;}
	.st2{fill:#FFCF00;}
	.st3{fill:#FFFFFF;}
	.st4{fill:#F9E385;}
</style>
<g id="Layer_2_1_">
</g>
<g>
	<g>
		<g>
			<path class="st0" d="M94.36,38.49c-32.71,0-59.23,26.52-59.23,59.23c0,25.71,16.38,47.58,39.27,55.77
				c-0.71,0.97-1.14,2.16-1.14,3.46c0,3.23,2.62,5.86,5.86,5.86s5.86-2.62,5.86-5.86c0-0.26-0.02-0.51-0.05-0.76
				c3.07,0.49,6.22,0.76,9.44,0.76c32.71,0,59.23-26.52,59.23-59.23C153.59,65,127.07,38.49,94.36,38.49z"/>
			<circle class="st0" cx="115.91" cy="22.66" r="5.86"/>
		</g>
		<circle class="st0" cx="20.49" cy="74.47" r="3.9"/>
	</g>
	<path class="st1" d="M119.13,113.18c0,0,5.4-0.71,12.38-2.18c2.84-9.55,2.08-19.95-2.3-29.05c-4.2,3.71-7.61,6.53-7.61,6.53
		c1.76-1.99,4.13-5.34,6.43-8.8c-1.77-3.14-3.98-6.11-6.65-8.78c-15.77-15.77-41.33-15.77-57.09,0c-2.93,2.93-5.32,6.2-7.16,9.69
		c1.99,4.32,4.61,9.03,7.9,14.2l-8.95-12.05c-4.28,9.42-4.74,20.15-1.41,29.86l7.8,0.7l-6.91,1.69c1.97,4.73,4.87,9.16,8.72,13.01
		c3.5,3.5,7.49,6.22,11.75,8.17l6.6-7.24l3.5-4.19c0,0-3.11,6.3-7.23,12.61c14.31,5.25,30.99,2.14,42.47-9.35
		c4.46-4.46,7.64-9.69,9.58-15.27C126.62,113.13,122.44,113.34,119.13,113.18z"/>
	<path class="st2" d="M119.13,113.18c0,0,6.17-0.82,13.86-2.49c3.02-9.54,2.11-20.26-2.66-29.72c-4.7,4.18-8.72,7.52-8.72,7.52
		c1.98-2.24,4.74-6.21,7.3-10.12c-1.78-2.99-3.96-5.83-6.56-8.43c-15.77-15.77-40.49-16.6-55.23-1.87
		c-4.26,4.26-7.21,9.36-8.88,14.84c1.82,3.68,4.08,7.62,6.79,11.88l-7.34-9.88c-3.18,12.99,0.65,27.73,11.3,38.38
		c3.42,3.42,7.27,6.14,11.35,8.15l2.29-2.52l3.5-4.19c0,0-1.63,3.29-4.09,7.51c14.33,6.28,31.08,4.01,42.17-7.08
		c3.67-3.67,6.37-7.95,8.11-12.57C127.5,113.08,122.79,113.36,119.13,113.18z"/>
	<path class="st3" d="M119.13,113.18c0,0,3.4-0.45,8.28-1.36c3.67-8.64,3.42-18.73-0.67-27.69c-2.98,2.59-5.13,4.36-5.13,4.36
		c1.25-1.41,2.8-3.5,4.42-5.84c-1.74-3.4-4.04-6.61-6.91-9.48c-13.86-13.86-35.59-14.59-48.54-1.64c-4.95,4.95-7.9,11.19-8.88,17.78
		c1.02,1.77,2.12,3.59,3.33,5.48l-3.44-4.64c-1.28,10.4,2.3,21.58,10.64,29.91c3.38,3.38,7.23,5.98,11.31,7.79l2.61-3.12
		c0,0-0.68,1.37-1.81,3.46c12.45,5.18,26.85,3.1,36.44-6.48c2.58-2.58,4.6-5.52,6.1-8.66C124.03,113.22,121.38,113.29,119.13,113.18
		z"/>
	<path class="st4" d="M119.13,113.18c0,0,2.35-0.31,5.94-0.94c1.56-3.25,2.53-6.73,2.87-10.31c0.16-1.63-1.19-3.13-2.84-3.18
		l-24.19-0.82c-0.92-0.03-1.34,1.06-0.67,1.73l17.68,17.68c1.21,1.21,3.16,1.16,4.12-0.12c0.97-1.29,1.81-2.65,2.55-4.05
		C122.63,113.25,120.77,113.26,119.13,113.18z"/>
	<polygon class="st4" points="117.81,74.47 117.82,74.47 117.82,74.47 	"/>
	<path class="st4" d="M125.27,85.39c-2.19,1.88-3.66,3.1-3.66,3.1c0.93-1.05,2.02-2.48,3.19-4.1c-1.09-2.31-2.44-4.54-4.08-6.63
		c-1.06-1.35-3.01-1.53-4.14-0.4l-16.52,16.52c-0.63,0.63-0.13,1.75,0.79,1.78l24.19,0.82c1.65,0.06,2.9-1.35,2.63-3
		C127.21,90.74,126.41,88.02,125.27,85.39z"/>
	<path class="st4" d="M114.52,71.57c-4.75-3.71-10.18-6.04-15.72-6.94c-1.65-0.27-3.05,0.98-3,2.63l0.82,24.19
		c0.03,0.92,1.15,1.41,1.78,0.79l16.52-16.52C116.06,74.58,115.87,72.63,114.52,71.57z"/>
	<path class="st4" d="M96.97,101.87l0.82,24.19c0.06,1.65,1.55,3,3.18,2.84c5.49-0.53,10.78-2.49,15.29-5.89
		c1.28-0.97,1.33-2.91,0.12-4.12L98.7,101.2C98.03,100.53,96.94,100.96,96.97,101.87z"/>
	<path class="st4" d="M94.36,91.37l-0.82-24.19c-0.06-1.65-1.55-3-3.18-2.84c-5.49,0.53-10.78,2.49-15.29,5.89
		c-1.28,0.97-1.33,2.91-0.12,4.12l17.68,17.68C93.3,92.71,94.39,92.29,94.36,91.37z"/>
	<path class="st4" d="M90.49,97.58l-24.19-0.82c-1.65-0.06-2.9,1.35-2.63,3c0.91,5.54,3.23,10.98,6.94,15.72
		c1.06,1.35,3.01,1.53,4.14,0.4l16.52-16.52C91.91,98.73,91.41,97.61,90.49,97.58z"/>
	<polygon class="st4" points="73.51,118.76 73.52,118.77 73.52,118.77 	"/>
	<polygon class="st4" points="71.97,72.92 71.97,72.92 71.97,72.92 	"/>
	<g>
		
			<ellipse transform="matrix(0.0983 -0.9952 0.9952 0.0983 -58.2066 110.2185)" class="st2" cx="31.72" cy="87.23" rx="2.73" ry="2.73"/>
		<path class="st2" d="M116.36,51.92c1.42-0.63,2.15-2.17,1.83-3.63c11.12-7.62,19.68-10.74,23.18-7.59
			c4.34,3.9-0.07,16.52-10.39,32.81l0,0l-9.37,14.96l0,0c0,0,0,0.01-0.01,0.01l0,0c22.78-27.81,34.13-50.34,26.31-56.36
			c-4.84-3.72-15.22,0.74-27.99,10.9h0c-1.19,0.95-2.41,1.96-3.64,3c-0.79-0.33-1.7-0.35-2.54,0.02c-1.47,0.65-2.19,2.27-1.78,3.77
			c-3.65,3.31-7.43,6.99-11.27,11.01c0.31,0.17,0.62,0.34,0.93,0.51c4.09-3.6,8.05-6.82,11.78-9.62
			C114.27,52.25,115.37,52.36,116.36,51.92z"/>
		<path class="st2" d="M37.97,155.62c-4.38-3.11-0.57-14.6,8.07-29.06l0,0l0.03-0.06c0.66-1.1,1.35-2.22,2.06-3.36l3.09-5.03
			c-3.53,4.84-8.65,12.37-11,16.21c-8.47,13.84-11.74,24.75-7.38,28.89c13.95,13.26,53.28-38.48,53.28-38.48l-3.55,4.07
			C75.93,136.44,48.3,162.95,37.97,155.62z"/>
		<path class="st2" d="M149.16,84.43c-4.58-1.06-9.59-1.68-14.94-2.48c0.17,0.34,0.34,0.69,0.5,1.03
			c20.92,3.02,34.76,8.26,34.76,14.23c0,7.3-20.71,13.52-49.73,15.9c0,0-0.54,0.06-0.62,0.06v0c34.9,1.68,56.24-3.92,56.41-13.51
			C175.65,93.18,167.1,88.59,149.16,84.43z"/>
		<circle class="st2" cx="69.76" cy="20.55" r="4.84"/>
		<path class="st2" d="M109.71,164.97c-1.8,0-3.26,1.46-3.26,3.26c0,1.8,1.46,3.26,3.26,3.26c1.8,0,3.26-1.46,3.26-3.26
			C112.98,166.43,111.52,164.97,109.71,164.97z"/>
		<path class="st2" d="M165.55,61.69c1.57,0,2.84-1.27,2.84-2.84c0-1.57-1.27-2.84-2.84-2.84s-2.84,1.27-2.84,2.84
			C162.71,60.42,163.98,61.69,165.55,61.69z"/>
	</g>
	<path class="st2" d="M64.88,112.93c-2.19-0.21-4.21-0.45-4.21-0.45c-25.42-2.74-42.95-8.54-42.95-15.26
		c0-4.77,8.84-9.08,23.07-12.16v-1.23c-0.93,0.19-1.84,0.38-2.74,0.59c-17.95,4.17-26.5,8.76-26.38,15.25
		c0.16,9.29,20.21,14.84,53.21,13.64C65.92,113.28,65.88,113.02,64.88,112.93z"/>
	<path class="st4" d="M94.71,101.79c-0.03-0.92-1.15-1.41-1.78-0.79l-16.52,16.52c-1.13,1.13-0.95,3.08,0.4,4.14
		c2.49,1.95,5.18,3.51,7.97,4.69l1.35-1.62c0,0-0.33,0.67-0.92,1.8c2.39,0.97,4.84,1.68,7.32,2.08c1.65,0.27,3.05-0.98,3-2.63
		L94.71,101.79z"/>
	<path class="st4" d="M91.08,93.58L73.4,75.9c-1.21-1.21-3.16-1.16-4.12,0.12c-3.4,4.51-5.36,9.8-5.89,15.29
		c-0.03,0.35,0.01,0.69,0.11,1.01c0.27,0.45,0.56,0.91,0.85,1.37c0.51,0.47,1.16,0.78,1.89,0.8l24.19,0.82
		C91.33,95.34,91.75,94.25,91.08,93.58z"/>
	<path class="st2" d="M56.38,82.46l-0.65-0.93C41.67,61.46,34.96,45.23,39.99,40.7c3.96-3.56,14.4,0.9,27.7,10.83l1.36-2.02
		c-2.61-2.36-5.16-4.53-7.62-6.49h0c-12.77-10.16-23.15-14.62-27.99-10.9c-7.17,5.52,1.79,24.93,20.9,49.57
		c-4.81,0.62-9.35,1.28-13.56,2.13v1.23c4.3-0.93,9.09-1.75,14.28-2.43c1.5,1.92,3.06,3.88,4.69,5.86l0,0c0,0,0,0,0,0l0,0l5.28,6.3
		l-6.53-9.37C57.77,84.42,57.07,83.44,56.38,82.46z"/>
	<g>
		<path class="st2" d="M76.08,58.22c0.47-0.22,0.94-0.42,1.42-0.62c-0.7-0.71-1.41-1.42-2.11-2.11c-2.15-2.11-4.26-4.1-6.34-5.98
			l-1.36,2.02c2.19,1.63,4.45,3.41,6.77,5.33C74.99,57.3,75.54,57.76,76.08,58.22z"/>
	</g>
	<path class="st2" d="M142.4,136.48c0.57-0.66,0.75-1.61,0.37-2.46c-0.46-1.04-1.6-1.57-2.67-1.31c-2.16-3.39-5.49-8.29-8.33-12.28
		c-0.05,0.08-0.1,0.17-0.15,0.25c2.92,4.48,5.42,8.71,7.45,12.59c-0.7,0.66-0.96,1.71-0.54,2.63c0.44,0.99,1.48,1.51,2.5,1.34
		c4.21,9.08,5.29,15.74,2.35,18.38c-4.79,4.31-19.05-3.11-36.4-17.76c-0.82-0.69-1.62-1.43-2.38-2.18l-2.31-2.29l-1.73,0.66
		l3.34,3.51c21.19,21.19,38.43,31.86,44.6,25.67C152.52,159.19,149.89,149.28,142.4,136.48z"/>
</g>
</svg>
