<?xml version="1.0" encoding="utf-8"?>
<!-- Generator: Adobe Illustrator 24.1.2, SVG Export Plug-In . SVG Version: 6.00 Build 0)  -->
<svg version="1.1" id="Layer_1" xmlns="http://www.w3.org/2000/svg" xmlns:xlink="http://www.w3.org/1999/xlink" x="0px" y="0px"
	 viewBox="0 0 187.2 187.2" style="enable-background:new 0 0 187.2 187.2;" xml:space="preserve">
<style type="text/css">
	.st0{fill:#38547C;}
	.st1{fill:#F69628;}
	.st2{fill:#E58628;}
	.st3{fill:#FFFFFF;}
	.st4{fill:#D63434;}
	.st5{fill:#F4D37D;}
</style>
<g id="Layer_2_1_">
</g>
<g>
	<g>
		<g>
			<path class="st0" d="M90.72,42.65c-32.71,0-59.23,26.52-59.23,59.23c0,25.71,16.38,47.58,39.27,55.77
				c-0.71,0.97-1.14,2.16-1.14,3.46c0,3.23,2.62,5.86,5.86,5.86s5.86-2.62,5.86-5.86c0-0.26-0.02-0.51-0.05-0.76
				c3.07,0.49,6.22,0.76,9.44,0.76c32.71,0,59.23-26.52,59.23-59.23C149.94,69.17,123.43,42.65,90.72,42.65z"/>
			<circle class="st0" cx="112.26" cy="26.83" r="5.86"/>
		</g>
		<circle class="st0" cx="20.74" cy="69.15" r="3.9"/>
	</g>
	<g>
		<path class="st1" d="M84.39,59.68c-12.24,0-23.06,6.06-29.65,15.34c2.63,6.17,5.93,12.42,7.53,16.15l-9.46-13.13
			c-3.02,5.3-4.76,11.43-4.76,17.97c0,6.13,1.52,11.89,4.2,16.95l0.61-0.27c0.12-0.04,12.58,0.47,12.58,0.47s-5.3,2.07-11.2,3.12
			c5.95,8.82,15.67,14.89,26.85,15.9l3.04-3.24l-1.34,3.35c0.53,0.02,1.05,0.04,1.59,0.04c4.03,0,7.9-0.67,11.53-1.88
			c-0.78-1.3-1.55-2.6-2.3-3.86l3.59,3.4c13.74-5.18,23.51-18.45,23.51-34C120.72,75.95,104.46,59.68,84.39,59.68z"/>
		<path class="st2" d="M119.13,113.18c0,0,15.08-0.52,15.2-0.48l0.8,0.19c1.26-4.01,1.64-8.32,0.94-12.68
			c-0.04-0.28-0.1-0.55-0.16-0.83l-61.55,9.88c0.04,0.28,0.07,0.56,0.11,0.84c1.94,12.05,11.49,21.11,23.4,23.62
			c-1.42-2.37-2.88-4.8-4.25-7.11l8.12,7.68c2.66,0.23,5.4,0.15,8.17-0.29c11.09-1.78,19.93-8.84,24.03-17.95
			C124.95,114.69,119.13,113.18,119.13,113.18z"/>
		<g>
			<path class="st2" d="M84.39,59.68c-12.24,0-23.06,6.06-29.65,15.34c1.5,3.52,3.21,7.06,4.71,10.15
				C63.6,71.9,75.14,61.91,89.26,60.02C87.67,59.8,86.04,59.68,84.39,59.68z"/>
			<path class="st2" d="M59.02,86.66l-6.2-8.61c-3.02,5.3-4.76,11.43-4.76,17.97c0,6.13,1.52,11.89,4.2,16.95l0.61-0.27
				c0.08-0.03,5.46,0.18,9.16,0.33c-2.7-5.08-4.23-10.87-4.23-17.02C57.8,92.78,58.23,89.64,59.02,86.66z"/>
		</g>
		<path class="st1" d="M119.13,113.18c0,0,15.08-0.52,15.2-0.48l1.74,0.42c1.24-4.1,1.59-8.54,0.86-13.05
			c-0.05-0.28-0.1-0.56-0.16-0.83l-57.65,9.26c0.04,0.28,0.07,0.56,0.11,0.84c1.65,10.25,8.44,18.38,17.31,22.2
			c-0.99-1.66-1.99-3.32-2.94-4.93l6.56,6.21c3.96,1.12,8.22,1.42,12.54,0.72c10.26-1.65,18.4-8.45,22.22-17.34
			C125.39,114.81,119.13,113.18,119.13,113.18z"/>
		<path class="st3" d="M119.13,113.18c0,0,9.29-0.32,13.35-0.44c1.25-3.78,1.64-7.91,0.97-12.11c-0.04-0.28-0.1-0.56-0.16-0.83
			l-50.66,8.14c0.04,0.28,0.07,0.56,0.11,0.84c2.25,14,15.42,23.53,29.42,21.28c8.7-1.4,15.66-7.01,19.16-14.42
			C123.84,114.4,119.13,113.18,119.13,113.18z"/>
		<path class="st2" d="M62.65,114.15c-2.1,0.68-5.16,1.56-8.39,2.14c5.95,8.82,15.67,14.89,26.85,15.9l1.59-1.69
			C74.18,127.67,67.06,121.79,62.65,114.15z"/>
		<path d="M109.22,121.47"/>
		<path class="st4" d="M121.82,99.07"/>
		<path class="st4" d="M105.36,134.09"/>
		<circle class="st1" cx="140.65" cy="134.96" r="2.32"/>
		<path class="st4" d="M59.75,88.49"/>
		<circle class="st1" cx="115.06" cy="48.99" r="3.21"/>
		<path class="st4" d="M121.6,88.49"/>
		<circle class="st1" cx="69.76" cy="20.55" r="4.84"/>
		<circle class="st1" cx="109.72" cy="168.23" r="3.26"/>
		<circle class="st1" cx="165.55" cy="58.85" r="2.84"/>
		<path class="st5" d="M106.49,108.36l-10.6,14.66c-0.73,1-0.42,2.43,0.67,3.02c3.66,1.98,7.85,3.04,12.21,2.91
			c1.24-0.04,2.17-1.17,1.97-2.39l-2.87-17.86C107.76,108.01,106.89,107.8,106.49,108.36z"/>
		<path class="st5" d="M84.86,111.64c1.24,4.18,3.56,7.83,6.58,10.69c0.9,0.85,2.35,0.7,3.07-0.31l10.6-14.66
			c0.4-0.55-0.07-1.32-0.74-1.21l-17.86,2.87C85.29,109.22,84.5,110.45,84.86,111.64z"/>
		<polygon class="st5" points="84.14,108.54 84.14,108.55 84.15,108.55 		"/>
		<polygon class="st5" points="104.25,80.75 104.25,80.76 104.24,80.76 		"/>
		<path class="st5" d="M125.42,118.28l-14.66-10.6c-0.55-0.4-1.32,0.07-1.21,0.74l2.87,17.86c0.2,1.23,1.43,2.01,2.62,1.65
			c4.18-1.24,7.83-3.56,10.69-6.58C126.57,120.45,126.42,119,125.42,118.28z"/>
		<polygon class="st5" points="132.04,100.85 132.04,100.86 132.04,100.86 		"/>
		<path class="st1" d="M75.61,136.81c-17.9,15.34-32.73,23.23-37.63,18.81c-4-3.6-0.57-14.6,8.07-29.06l0,0l0.03-0.06
			c0.66-1.1,1.35-2.22,2.06-3.36l3.09-5.03c-3.53,4.84-8.65,12.37-11,16.21c-8.47,13.84-11.62,24.63-7.38,28.89
			c4.86,4.88,16.59-0.71,31.71-13.66c7.21-6.18,13.75-13.11,19.58-20.61h0L75.61,136.81z"/>
		<g>
			<path class="st1" d="M141.12,134.33c-1.56-2.54-4.32-6.7-7.04-10.63c-0.09,0.13-0.19,0.25-0.29,0.38
				c9.74,15.67,13.81,27.74,9.59,31.54c-4.9,4.41-19.73-3.47-37.63-18.81l-12.13-10.2l10.29,10.94
				c21.19,21.19,38.43,31.86,44.6,25.67C152.74,158.96,149.59,148.17,141.12,134.33z"/>
		</g>
		<path class="st1" d="M75.39,55.5c-4.85-4.76-9.55-8.96-13.96-12.47h0c-12.77-10.16-23.15-14.62-27.99-10.9
			c-7.82,6.02,3.53,28.54,26.31,56.36l0,0c0,0,0,0,0,0l0,0l5.28,6.3l-6.53-9.37C42.57,63.58,34.64,45.51,39.99,40.7
			c4.61-4.15,18,2.58,34.47,16.15c0.33,0.28,0.68,0.57,1.01,0.85c0.58-0.14,1.18-0.25,1.77-0.36C76.62,56.73,76,56.1,75.39,55.5z"/>
		<path class="st1" d="M68.07,113.18c-0.09-0.01-0.17-0.02-0.25-0.02c-2.85-0.16-7.15-0.68-7.15-0.68
			c-25.42-2.74-42.95-8.54-42.95-15.26c0-3.29,4.21-6.36,11.48-8.96c0.01,0.03,0.02,0.06,0.03,0.08c0.61,1.38,2.23,2,3.61,1.38
			c1.21-0.54,1.83-1.85,1.56-3.09c1.99-0.55,4.11-1.08,6.39-1.57c1.97-0.43,4.05-0.83,6.21-1.21c0.13-0.39,0.26-0.78,0.4-1.17
			c-2.27,0.35-4.49,0.72-6.61,1.15c-0.93,0.19-1.84,0.38-2.74,0.59c-1.49,0.35-2.89,0.7-4.24,1.05c-0.76-0.9-2.05-1.24-3.19-0.74
			c-0.88,0.39-1.44,1.18-1.58,2.06c-11.8,3.56-17.46,7.59-17.37,12.88C11.83,109.26,33.17,114.86,68.07,113.18L68.07,113.18z"/>
		<path class="st1" d="M102.12,60.92c18.62-16.26,34.19-24.76,39.25-20.21c4.34,3.9-0.07,16.52-10.39,32.81l0,0l-9.37,14.96l0,0
			c0,0,0,0.01-0.01,0.01l0,0c22.78-27.81,34.13-50.34,26.31-56.36c-4.84-3.72-15.22,0.74-27.99,10.9h0
			c-5.87,4.67-12.24,10.55-18.82,17.39C101.45,60.58,101.79,60.75,102.12,60.92z"/>
		<g>
			<path class="st5" d="M130.94,112.79c0.98-2.76,1.48-5.72,1.39-8.77c-0.04-1.24-1.17-2.17-2.39-1.97l-17.86,2.87
				c-0.68,0.11-0.88,0.98-0.33,1.38l9.42,6.81C123.66,113.03,127.94,112.88,130.94,112.79z"/>
			<path class="st5" d="M122.27,113.91l4.13,2.99c1,0.73,2.43,0.42,3.02-0.67c0.15-0.28,0.28-0.56,0.42-0.84
				C126.69,114.84,124.11,114.32,122.27,113.91z"/>
		</g>
		<path class="st1" d="M149.16,84.43c-4.51-1.05-9.45-1.66-14.71-2.44c2.82,0.41,34.02,5.2,34.99,14.65
			c0.03,0.19,0.05,0.39,0.05,0.58c0,7.3-20.71,13.52-49.73,15.9h0.28c-0.22,0.01-0.43,0.03-0.65,0.04
			c-0.09,0.01-0.17,0.02-0.25,0.02v0c34.9,1.68,56.24-3.92,56.41-13.51C175.65,93.18,167.1,88.59,149.16,84.43z"/>
	</g>
</g>
</svg>
