<?xml version="1.0" encoding="utf-8"?>
<!-- Generator: Adobe Illustrator 23.0.4, SVG Export Plug-In . SVG Version: 6.00 Build 0)  -->
<svg version="1.1" id="Layer_1" xmlns="http://www.w3.org/2000/svg" xmlns:xlink="http://www.w3.org/1999/xlink" x="0px" y="0px"
	 viewBox="0 0 2541.97 500" style="enable-background:new 0 0 2541.97 500;" xml:space="preserve">
<style type="text/css">
	.st0{fill:#D63434;}
	.st1{fill:#FFFFFF;}
	.st2{clip-path:url(#SVGID_2_);}
	.st3{clip-path:url(#SVGID_4_);fill:#FFFFFF;}
	.st4{fill:#DBB449;}
</style>
<g>
	<g>
		<path class="st0" d="M302.6,163.46c-0.71,1.04-1.42,2.07-2.12,3.1c8.24,6.79,16.8,14.33,25.58,22.53l0.71-0.75l-10.4-10.87
			C311.74,172.58,307.15,167.92,302.6,163.46z"/>
		<path class="st0" d="M224,230.61c12.07-2.61,25.83-4.84,40.9-6.58c1-1.24,1.44-2.01,2.07-2.56c-15.49,1.88-29.91,3.71-42.97,6.36
			V230.61z"/>
		<g>
			<path class="st1" d="M289.91,290.92c0,38.88,19.54,73.02,48.98,92.52c29.45-19.51,48.98-53.64,48.98-92.52"/>
			<path class="st0" d="M338.89,387.51l-1.87-1.24c-31.62-20.95-50.5-56.59-50.5-95.35h6.78c0,35.7,17,68.59,45.59,88.43
				c28.59-19.84,45.59-52.73,45.59-88.43h6.78c0,38.75-18.88,74.4-50.5,95.35L338.89,387.51z"/>
		</g>
		<path class="st0" d="M338.89,290.92h-48.98c0,38.88,19.54,73.01,48.98,92.52V290.92z"/>
		<g>
			<path class="st1" d="M293.48,256.99c0,36.54,18.12,68.62,45.42,86.96c27.3-18.33,45.42-50.41,45.42-86.96"/>
			<path class="st0" d="M338.89,348.02l-1.89-1.27c-29.38-19.73-46.92-53.29-46.92-89.77h6.78c0,33.43,15.67,64.22,42.03,82.84
				c26.36-18.62,42.03-49.41,42.03-82.84h6.78c0,36.48-17.54,70.04-46.92,89.77L338.89,348.02z"/>
		</g>
		<g>
			<path class="st0" d="M293.48,256.99h-42.01c0,36.54,14.47,68.62,36.27,86.96c8.99-7.56,16.7-17.48,22.7-29.06
				C299.73,298.37,293.48,278.45,293.48,256.99z"/>
			<path class="st1" d="M287.73,348.37l-2.18-1.83c-23.46-19.73-37.47-53.21-37.47-89.55v-3.39h48.79v3.39
				c0,20.1,5.67,39.49,16.41,56.05l1.07,1.65l-0.9,1.75c-6.27,12.12-14.19,22.25-23.53,30.1L287.73,348.37z M254.89,260.37
				c0.8,31.89,12.9,61.03,32.84,79.07c7.28-6.6,13.59-14.79,18.78-24.41c-10.16-16.34-15.79-35.14-16.37-54.66H254.89z"/>
		</g>
		<g>
			<path class="st1" d="M384.31,256.99c0,21.47-6.26,41.39-16.95,57.89c5.99,11.58,13.71,21.5,22.7,29.06
				c21.8-18.33,36.27-50.41,36.27-86.96H384.31z"/>
			<path class="st0" d="M390.06,348.37l-2.18-1.83c-9.33-7.85-17.25-17.97-23.53-30.1l-0.9-1.75l1.07-1.65
				c10.73-16.56,16.41-35.95,16.41-56.05v-3.39h48.79v3.39c0,36.34-14.01,69.82-37.47,89.55L390.06,348.37z M371.28,315.03
				c5.2,9.62,11.5,17.81,18.78,24.41c19.93-18.04,32.04-47.18,32.84-79.07h-35.25C387.06,279.9,381.44,298.69,371.28,315.03z"/>
		</g>
		<g>
			<defs>
				<rect id="SVGID_1_" x="255.49" y="199.26" width="83.41" height="190.8"/>
			</defs>
			<clipPath id="SVGID_2_">
				<use xlink:href="#SVGID_1_"  style="overflow:visible;"/>
			</clipPath>
			<g class="st2">
				<path class="st0" d="M293.48,256.99c0,36.54,18.12,68.62,45.42,86.96c27.3-18.33,45.42-50.41,45.42-86.96"/>
				<path class="st1" d="M338.89,348.02l-1.89-1.27c-29.38-19.73-46.92-53.29-46.92-89.77h6.78c0,33.43,15.67,64.22,42.03,82.84
					c26.36-18.62,42.03-49.41,42.03-82.84h6.78c0,36.48-17.54,70.04-46.92,89.77L338.89,348.02z"/>
			</g>
		</g>
		<g>
			<path class="st0" d="M242.66,261.71c0,6.65,0.87,13.08,2.49,19.21c6.03,1.64,12.36,2.53,18.9,2.53
				c40.27,0,72.91-33.17,72.91-74.09c0-6.65-0.87-13.08-2.49-19.21c-6.03-1.64-12.36-2.53-18.9-2.53
				C275.31,187.62,242.66,220.79,242.66,261.71z"/>
			<path class="st1" d="M264.06,286.84c-6.68,0-13.34-0.89-19.79-2.65l-1.89-0.52l-0.5-1.89c-1.73-6.55-2.6-13.3-2.6-20.07
				c0-42.72,34.23-77.48,76.3-77.48c6.68,0,13.34,0.89,19.79,2.65l1.89,0.52l0.5,1.89c1.73,6.55,2.6,13.3,2.6,20.07
				C340.36,252.08,306.13,286.84,264.06,286.84z M247.95,278.14c5.27,1.27,10.68,1.92,16.11,1.92c38.34,0,69.53-31.72,69.53-70.7
				c0-5.53-0.64-11.05-1.9-16.43c-5.27-1.27-10.68-1.92-16.11-1.92c-38.34,0-69.53,31.72-69.53,70.7
				C246.05,267.24,246.69,272.76,247.95,278.14z"/>
		</g>
		<g>
			<path class="st1" d="M435.12,261.71c0,6.65-0.87,13.08-2.49,19.21c-6.03,1.64-12.36,2.53-18.9,2.53
				c-40.27,0-72.91-33.17-72.91-74.09c0-6.65,0.87-13.08,2.49-19.21c6.03-1.64,12.36-2.53,18.9-2.53
				C402.48,187.62,435.12,220.79,435.12,261.71z"/>
			<path class="st0" d="M413.73,286.84c-42.07,0-76.3-34.76-76.3-77.48c0-6.77,0.88-13.52,2.6-20.07l0.5-1.89l1.89-0.52
				c6.45-1.76,13.12-2.65,19.79-2.65c42.07,0,76.3,34.76,76.3,77.48c0,6.77-0.88,13.52-2.6,20.07l-0.5,1.89l-1.89,0.52
				C427.07,285.94,420.41,286.84,413.73,286.84z M346.11,192.92c-1.26,5.39-1.9,10.9-1.9,16.43c0,38.99,31.19,70.7,69.53,70.7
				c5.42,0,10.83-0.64,16.11-1.92c1.26-5.39,1.9-10.9,1.9-16.43c0-38.99-31.19-70.7-69.53-70.7
				C356.79,191.01,351.38,191.65,346.11,192.92z"/>
		</g>
		<g>
			<path class="st1" d="M325.98,275.55c3.99,2.97,8.31,5.62,12.91,7.9c24.87-12.34,41.62-35.38,41.62-61.79
				c0-26.41-16.75-33.06-41.62-45.4c-4.46,2.21-8.65,4.24-12.54,6.23"/>
			<path class="st0" d="M338.89,287.23l-1.51-0.75c-4.76-2.36-9.27-5.12-13.43-8.21l4.05-5.44c3.39,2.52,7.04,4.81,10.89,6.81
				c23.63-12.32,38.23-34.41,38.23-57.99c0-22.8-13.38-29.38-35.56-40.3l-2.67-1.32l-2.62,1.29c-2.93,1.44-5.72,2.82-8.37,4.18
				l-3.09-6.03c2.68-1.38,5.51-2.77,8.47-4.23l5.61-2.77l5.67,2.8c22.84,11.24,39.34,19.37,39.34,46.38
				c0,26.67-16.67,51.51-43.5,64.82L338.89,287.23z"/>
		</g>
		<rect x="323.05" y="171.07" class="st1" width="15.85" height="18.02"/>
		<path class="st0" d="M338.89,176.26c-24.87,12.34-41.62,18.99-41.62,45.4s16.75,49.45,41.62,61.79V176.26z"/>
		<g>
			<defs>
				<rect id="SVGID_3_" x="286.67" y="161.91" width="52.22" height="156.32"/>
			</defs>
			<clipPath id="SVGID_4_">
				<use xlink:href="#SVGID_3_"  style="overflow:visible;"/>
			</clipPath>
			<path class="st3" d="M338.89,287.23l-1.51-0.75c-26.83-13.31-43.5-38.15-43.5-64.82c0-27.01,16.5-35.14,39.34-46.38l5.67-2.8
				l5.67,2.8c22.84,11.24,39.34,19.37,39.34,46.38c0,26.67-16.67,51.51-43.5,64.82L338.89,287.23z M338.89,180.04l-2.67,1.32
				c-22.17,10.91-35.56,17.5-35.56,40.3c0,23.58,14.6,45.67,38.23,57.99c23.63-12.32,38.23-34.41,38.23-57.99
				c0-22.8-13.38-29.38-35.56-40.3L338.89,180.04z"/>
		</g>
		<path d="M379.43,313.31"/>
		<path class="st0" d="M408.07,262.43"/>
		<path class="st0" d="M370.67,341.96"/>
		<path class="st1" d="M251.46,293.38c0.27-0.09,28.58,1.07,28.58,1.07s-30.31,11.83-48.22,7.49L251.46,293.38z"/>
		<path class="st1" d="M436.47,293.38c-0.27-0.09-34.52,1.09-34.52,1.09s38.68,10.05,85.93,11.22L436.47,293.38z"/>
		<circle class="st0" cx="450.83" cy="343.94" r="5.28"/>
		<circle class="st0" cx="203.42" cy="235.53" r="6.21"/>
		<path class="st0" d="M285.98,294.47c-0.19-0.02-0.38-0.04-0.58-0.05c-6.47-0.37-16.24-1.55-16.24-1.55
			c-57.72-6.22-97.55-19.4-97.55-34.66c0-10.83,20.09-20.62,52.39-27.61v-2.78c-2.11,0.43-4.18,0.87-6.22,1.34
			c-40.76,9.47-60.18,19.89-59.92,34.63C158.24,285.58,206.71,298.29,285.98,294.47L285.98,294.47z"/>
		<path class="st0" d="M267.09,238.39"/>
		<circle class="st0" cx="392.7" cy="148.67" r="7.29"/>
		<path class="st0" d="M407.57,238.39"/>
		<path class="st1" d="M283.28,372.51l34.27-32.11c0,0-20.81,30.82-32.49,41.83l-3.07-4.87L283.28,372.51z"/>
		<path class="st0" d="M305.42,349.28c-1,0.8-0.88-0.2-1.87,0.58l-0.46-1.72c-40.65,34.85-74.33,52.75-85.47,42.73
			c-9.08-8.17-1.29-33.16,18.33-65.99l0,0l0.08-0.13c1.49-2.5,3.06-5.04,4.69-7.63l7.02-11.43c-8.03,10.98-19.65,28.1-24.99,36.82
			c-19.24,31.43-26.39,55.93-16.75,65.61c14,14.06,53.16-10.19,101.29-58.3L305.42,349.28z"/>
		<path class="st1" d="M249.45,212.05l23.37,32.45c-6.32-14.7-24.26-46.71-25.74-65.04L249.45,212.05z"/>
		<path class="st0" d="M264.24,231.42c-36.17-49.61-54.19-90.63-42.05-101.55c10.48-9.43,40.89,5.85,78.29,36.69
			c0.7-1.02,1.41-2.06,2.12-3.1c-11.02-10.82-21.68-20.35-31.7-28.32h0c-29.01-23.08-52.59-33.2-63.57-24.75
			c-17.76,13.66,8.01,64.83,59.75,128l0,0c-0.11-0.17-0.2-0.34-0.31-0.51C264.85,234.95,264.52,233.17,264.24,231.42z"/>
		<path class="st0" d="M470.15,229.16c-10.4-2.42-21.77-3.82-33.92-5.62c0.39,0.77,0.77,1.56,1.13,2.35
			c47.51,6.85,78.96,18.77,78.96,32.33c0,16.58-47.03,30.72-112.95,36.12H404c-0.49,0.03-0.97,0.06-1.47,0.09
			c-0.2,0.01-0.38,0.03-0.58,0.05v0c79.27,3.81,127.74-8.9,128.12-30.68C530.33,249.06,510.91,238.63,470.15,229.16z"/>
		<path class="st1" d="M407.57,238.39c0,0,13.46-16.93,22.77-81.19l13.99,27.78L407.57,238.39z"/>
		<path class="st0" d="M467.32,110.39c-10.99-8.45-34.56,1.67-63.57,24.75h0c-13.6,10.82-28.4,24.49-43.66,40.44
			c0.71,0.39,1.41,0.77,2.11,1.17c42.78-37.57,78.69-57.3,90.26-46.88c9.85,8.86-0.16,37.53-23.59,74.52l0,0l-21.28,33.98l0,0
			c0,0.01-0.01,0.02-0.01,0.02l0,0C459.31,175.22,485.09,124.06,467.32,110.39z"/>
		<polygon class="st1" points="365.71,348.57 391.78,401.76 404.51,377.85 		"/>
		<path class="st0" d="M451.9,342.52c-5.34-8.72-16.96-25.84-24.99-36.82c-0.05,0.14-0.1,0.27-0.15,0.41
			c28.15,41.88,41.01,75.11,30.27,84.77c-11.14,10.02-44.82-7.88-85.47-42.73l-0.46,1.72c-0.99-0.78-0.87,0.22-1.87-0.58l-1.87,0.55
			c48.13,48.12,87.28,72.36,101.29,58.3C478.29,398.45,471.13,373.95,451.9,342.52z"/>
		<polygon class="st0" points="267.09,238.39 279.07,252.71 264.24,231.42 261.25,229.33 		"/>
		<circle class="st0" cx="289.82" cy="84.08" r="10.99"/>
		<circle class="st0" cx="380.57" cy="419.5" r="7.4"/>
		<circle class="st0" cx="507.38" cy="171.07" r="6.44"/>
	</g>
	<g>
		<path class="st4" d="M620.71,250.64c0-11.33,2.09-21.88,6.27-31.66c4.18-9.78,9.98-18.31,17.4-25.59
			c7.42-7.28,16.29-12.98,26.6-17.1c10.32-4.11,21.68-6.17,34.09-6.17c12.27,0,23.6,2.06,33.99,6.17
			c10.38,4.11,19.32,9.81,26.81,17.1c7.48,7.28,13.32,15.81,17.5,25.59c4.18,9.78,6.27,20.33,6.27,31.66
			c0,10.52-1.72,20.3-5.16,29.34c-3.44,9.04-8.39,17.06-14.87,24.07l25.9,27.11l-36.42,5.67l-13.96-14.36
			c-5.94,2.7-12.24,4.82-18.92,6.37c-6.68,1.55-13.73,2.33-21.14,2.33c-12.41,0-23.77-2.06-34.09-6.17
			c-10.32-4.11-19.19-9.81-26.6-17.1c-7.42-7.28-13.22-15.81-17.4-25.59C622.8,272.52,620.71,261.97,620.71,250.64z M662.19,250.64
			c0,6.07,1.14,11.67,3.44,16.79c2.29,5.13,5.39,9.58,9.31,13.35c3.91,3.78,8.46,6.71,13.66,8.8c5.19,2.09,10.69,3.13,16.49,3.13
			c3.51,0,7.01-0.4,10.52-1.21l-22.66-23.87l37.43-4.65l10.52,11.13c4.86-6.74,7.28-14.56,7.28-23.47c0-6.07-1.15-11.66-3.44-16.79
			c-2.3-5.13-5.43-9.58-9.41-13.35c-3.98-3.77-8.57-6.71-13.76-8.8c-5.19-2.09-10.69-3.13-16.49-3.13c-5.8,0-11.3,1.05-16.49,3.13
			c-5.19,2.09-9.75,5.03-13.66,8.8c-3.91,3.78-7.01,8.23-9.31,13.35C663.33,238.98,662.19,244.57,662.19,250.64z"/>
		<path class="st4" d="M858.42,174.37v82.95c0,4.45,0.17,9,0.51,13.66c0.34,4.65,1.35,8.87,3.04,12.64c1.68,3.78,4.35,6.85,7.99,9.2
			c3.64,2.36,8.77,3.54,15.38,3.54c6.61,0,11.7-1.18,15.27-3.54c3.57-2.36,6.24-5.43,7.99-9.2c1.75-3.77,2.8-7.99,3.14-12.64
			c0.33-4.65,0.51-9.2,0.51-13.66v-82.95h39.45v88.41c0,23.74-5.43,41.07-16.28,51.99c-10.86,10.92-27.55,16.39-50.07,16.39
			c-22.53,0-39.25-5.46-50.17-16.39c-10.92-10.92-16.39-28.25-16.39-51.99v-88.41H858.42z"/>
		<path class="st4" d="M1076.11,300.41h-56.65l-9.11,26.5h-42.28l58.06-152.54h43.3l58.06,152.54h-42.28L1076.11,300.41z
			 M1065.59,270.27l-17.8-50.78l-17.8,50.78H1065.59z"/>
		<path class="st4" d="M1148.94,326.91V174.37h39.65l73.24,93.26v-93.26h39.45v152.54h-39.45l-73.24-93.27v93.27H1148.94z"/>
		<path class="st4" d="M1395.15,207.95v118.96h-39.65V207.95h-32.57v-33.58h104.79v33.58H1395.15z"/>
		<path class="st4" d="M1489.02,174.37v82.95c0,4.45,0.17,9,0.51,13.66c0.33,4.65,1.35,8.87,3.04,12.64
			c1.68,3.78,4.35,6.85,7.99,9.2c3.64,2.36,8.77,3.54,15.38,3.54c6.61,0,11.7-1.18,15.27-3.54c3.57-2.36,6.24-5.43,7.99-9.2
			c1.75-3.77,2.8-7.99,3.14-12.64c0.34-4.65,0.51-9.2,0.51-13.66v-82.95h39.45v88.41c0,23.74-5.43,41.07-16.28,51.99
			c-10.86,10.92-27.55,16.39-50.07,16.39c-22.53,0-39.25-5.46-50.17-16.39c-10.92-10.92-16.39-28.25-16.39-51.99v-88.41H1489.02z"/>
		<path class="st4" d="M1611.41,326.91l25.9-152.54h39.25l30.55,81.33l30.35-81.33h39.25l25.9,152.54h-39.45l-13.15-87.8
			l-36.01,87.8h-15.78l-34.19-87.8l-13.15,87.8H1611.41z"/>
		<path class="st4" d="M1964.43,167.99v19.56c-5.58-2.72-10.25-4.08-14.02-4.08c-5.16,0-9.59,1.27-13.29,3.82
			c-3.7,2.55-6.75,6.47-9.16,11.77c-2.4,5.3-4.18,12.02-5.33,20.14c-1.15,8.13-1.73,17.73-1.73,28.82
			c0,39.9,10.22,59.84,30.66,59.84c3.56,0,7.85-1.11,12.87-3.35v19.98c-5.23,2.93-11.09,4.39-17.58,4.39
			c-32.71,0-49.07-26.71-49.07-80.14c0-28.88,3.99-50.36,11.98-64.45c7.99-14.09,20.21-21.13,36.67-21.13
			C1952.5,163.18,1958.5,164.78,1964.43,167.99z"/>
		<path class="st4" d="M1999.88,165.37h28.67c11.86,0,20.68,2.83,26.47,8.47c7.33,7.32,10.99,18.52,10.99,33.58
			c0,11.58-1.94,20.87-5.81,27.88c-3.87,7.01-9.4,11.35-16.58,13.02l29.71,78.57h-22.08l-29.61-79.1v79.1h-21.76V165.37z
			 M2021.64,236.93c8.44,0,14.4-1.95,17.89-5.86c3.49-3.9,5.23-10.5,5.23-19.77c0-5.02-0.36-9.31-1.1-12.87
			c-0.73-3.56-1.88-6.45-3.45-8.68c-1.57-2.23-3.59-3.87-6.07-4.92c-2.48-1.05-5.42-1.57-8.84-1.57h-3.66V236.93z"/>
		<path class="st4" d="M2130.33,165.37h16.95l34.63,161.54h-21.55l-6.07-31.49h-32.01l-6.17,31.49h-20.93L2130.33,165.37z
			 M2151.15,278.57l-4.81-25.74c-3.21-17.51-5.82-36.2-7.85-56.08c-0.98,9.7-2.23,19.51-3.77,29.45
			c-1.53,9.94-3.35,20.49-5.44,31.65l-3.98,20.71H2151.15z"/>
		<path class="st4" d="M2211.81,165.37h58.17v18.42h-36.41v51.05h32.85v18.42h-32.85v73.65h-21.76V165.37z"/>
		<path class="st4" d="M2295.28,165.37h70.83v19.04h-24.38v142.5h-21.34v-142.5h-25.11V165.37z"/>
	</g>
</g>
</svg>
