<?xml version="1.0" encoding="utf-8"?>
<!-- Generator: Adobe Illustrator 24.1.2, SVG Export Plug-In . SVG Version: 6.00 Build 0)  -->
<svg version="1.1" id="Layer_1" xmlns="http://www.w3.org/2000/svg" xmlns:xlink="http://www.w3.org/1999/xlink" x="0px" y="0px"
	 viewBox="0 0 952.02 158.76" style="enable-background:new 0 0 952.02 158.76;" xml:space="preserve">
<style type="text/css">
	.st0{fill:#FFFFFF;}
</style>
<g id="Layer_2_1_">
</g>
<g id="Layer_1_1_">
	<g>
		<g>
			<path class="st0" d="M204.69,79.65c0-4.79,0.88-9.26,2.65-13.4c1.77-4.14,4.22-7.75,7.36-10.83s6.89-5.49,11.25-7.23
				c4.37-1.74,9.17-2.61,14.42-2.61c5.19,0,9.99,0.87,14.38,2.61c4.39,1.74,8.17,4.15,11.34,7.23c3.16,3.08,5.64,6.69,7.4,10.83
				c1.77,4.14,2.65,8.6,2.65,13.4c0,4.45-0.73,8.59-2.18,12.41c-1.46,3.82-3.55,7.22-6.29,10.18l10.96,11.47l-15.41,2.4l-5.91-6.08
				c-2.51,1.14-5.18,2.04-8,2.7c-2.83,0.66-5.81,0.99-8.94,0.99c-5.25,0-10.06-0.87-14.42-2.61c-4.37-1.74-8.12-4.15-11.25-7.23
				c-3.14-3.08-5.59-6.69-7.36-10.83C205.57,88.91,204.69,84.45,204.69,79.65z M222.24,79.65c0,2.57,0.48,4.94,1.46,7.1
				c0.97,2.17,2.28,4.05,3.94,5.65c1.65,1.6,3.58,2.84,5.78,3.72c2.2,0.88,4.52,1.32,6.98,1.32c1.49,0,2.97-0.17,4.45-0.51
				l-9.59-10.1l15.84-1.97l4.45,4.71c2.06-2.85,3.08-6.16,3.08-9.93c0-2.57-0.49-4.93-1.46-7.1s-2.3-4.05-3.98-5.65
				s-3.63-2.84-5.82-3.72c-2.2-0.88-4.52-1.32-6.98-1.32s-4.78,0.44-6.98,1.32s-4.13,2.13-5.78,3.72c-1.65,1.6-2.97,3.48-3.94,5.65
				C222.72,74.72,222.24,77.08,222.24,79.65z"/>
			<path class="st0" d="M305.26,47.38v35.1c0,1.88,0.07,3.81,0.22,5.78c0.14,1.97,0.57,3.75,1.29,5.35c0.71,1.6,1.84,2.9,3.38,3.89
				c1.54,1,3.71,1.5,6.51,1.5s4.95-0.5,6.46-1.5c1.51-1,2.64-2.3,3.38-3.89c0.74-1.6,1.18-3.38,1.33-5.35
				c0.14-1.97,0.22-3.89,0.22-5.78v-35.1h16.69v37.41c0,10.04-2.3,17.38-6.89,22c-4.59,4.62-11.66,6.93-21.18,6.93
				c-9.53,0-16.61-2.31-21.23-6.93s-6.93-11.95-6.93-22V47.38H305.26L305.26,47.38z"/>
			<path class="st0" d="M397.37,100.71H373.4l-3.85,11.21h-17.89l24.57-64.54h18.32l24.57,64.54h-17.89L397.37,100.71z
				 M392.92,87.96l-7.53-21.48l-7.53,21.48C377.86,87.96,392.92,87.96,392.92,87.96z"/>
			<path class="st0" d="M428.18,111.92V47.38h16.78l30.99,39.46V47.38h16.69v64.54h-16.69l-30.99-39.46v39.46H428.18L428.18,111.92z
				"/>
			<path class="st0" d="M532.35,61.59v50.33h-16.78V61.59H501.8V47.38h44.34v14.21H532.35z"/>
			<path class="st0" d="M572.07,47.38v35.1c0,1.88,0.07,3.81,0.22,5.78c0.14,1.97,0.57,3.75,1.29,5.35c0.71,1.6,1.84,2.9,3.38,3.89
				c1.54,1,3.71,1.5,6.51,1.5s4.95-0.5,6.46-1.5s2.64-2.3,3.38-3.89c0.74-1.6,1.18-3.38,1.33-5.35c0.14-1.97,0.22-3.89,0.22-5.78
				v-35.1h16.69v37.41c0,10.04-2.3,17.38-6.89,22s-11.66,6.93-21.18,6.93c-9.53,0-16.61-2.31-21.23-6.93s-6.93-11.95-6.93-22V47.38
				H572.07L572.07,47.38z"/>
			<path class="st0" d="M623.85,111.92l10.96-64.54h16.61l12.93,34.41l12.84-34.41h16.61l10.96,64.54h-16.69l-5.56-37.15
				l-15.24,37.15h-6.68l-14.47-37.15l-5.56,37.15L623.85,111.92L623.85,111.92z"/>
			<path class="st0" d="M773.22,44.68v8.28c-2.36-1.15-4.34-1.73-5.93-1.73c-2.18,0-4.06,0.54-5.62,1.62
				c-1.57,1.08-2.86,2.74-3.88,4.98c-1.02,2.24-1.77,5.09-2.26,8.52c-0.49,3.44-0.73,7.5-0.73,12.19c0,16.88,4.32,25.32,12.97,25.32
				c1.51,0,3.32-0.47,5.45-1.42v8.45c-2.21,1.24-4.69,1.86-7.44,1.86c-13.84,0-20.76-11.3-20.76-33.91
				c0-12.22,1.69-21.31,5.07-27.27s8.55-8.94,15.52-8.94C768.17,42.65,770.71,43.33,773.22,44.68z"/>
			<path class="st0" d="M788.21,43.58h12.13c5.02,0,8.75,1.2,11.2,3.58c3.1,3.1,4.65,7.84,4.65,14.21c0,4.9-0.82,8.83-2.46,11.8
				s-3.98,4.8-7.01,5.51l12.57,33.24h-9.34l-12.53-33.47v33.47h-9.21L788.21,43.58L788.21,43.58z M797.42,73.85
				c3.57,0,6.09-0.83,7.57-2.48s2.21-4.44,2.21-8.36c0-2.12-0.15-3.94-0.47-5.45c-0.31-1.51-0.8-2.73-1.46-3.67
				c-0.66-0.94-1.52-1.64-2.57-2.08s-2.29-0.66-3.74-0.66h-1.55L797.42,73.85L797.42,73.85z"/>
			<path class="st0" d="M843.41,43.58h7.17l14.65,68.35h-9.12l-2.57-13.32H840l-2.61,13.32h-8.86L843.41,43.58z M852.22,91.47
				l-2.04-10.89c-1.36-7.41-2.46-15.32-3.32-23.73c-0.41,4.1-0.94,8.25-1.6,12.46c-0.65,4.21-1.42,8.67-2.3,13.39l-1.68,8.76
				L852.22,91.47L852.22,91.47z"/>
			<path class="st0" d="M877.88,43.58h24.61v7.79h-15.4v21.6h13.9v7.79h-13.9v31.16h-9.21L877.88,43.58L877.88,43.58z"/>
			<path class="st0" d="M913.2,43.58h29.97v8.06h-10.32v60.29h-9.03v-60.3H913.2V43.58z"/>
		</g>
		<g>
			<path class="st0" d="M112.22,98.19c33.51,1.61,53.99-3.76,54.12-12.96c0.1-6.22-8.1-10.63-25.33-14.63
				c-4.41-1.03-9.2-1.61-14.33-2.36c0.17,0.34,0.34,0.65,0.48,0.99c20.07,2.91,33.37,7.93,33.37,13.68
				c0,6.22-15.59,11.59-38.53,14.33c0.24-0.89,0.48-1.81,0.68-2.74c0.96-0.17,1.91-0.38,2.87-0.65l0.79-0.21l0.21-0.79
				c0.72-2.77,1.09-5.61,1.09-8.48c0-7.04-2.19-13.54-5.95-18.91c16.99-22.43,24.75-39.93,18.12-45.03
				c-4.65-3.56-14.6,0.72-26.87,10.46c-1.13,0.92-2.29,1.88-3.49,2.87c-0.38-0.14-0.75-0.24-1.2-0.24c-1.71,0-3.08,1.37-3.08,3.08
				c0,0.27,0.03,0.55,0.1,0.82c-3.49,3.18-7.11,6.7-10.8,10.56c0.31,0.17,0.58,0.34,0.89,0.48c3.93-3.45,7.73-6.53,11.28-9.23
				c0.48,0.27,0.99,0.44,1.57,0.44c1.71,0,3.08-1.37,3.08-3.08c0-0.24-0.03-0.44-0.07-0.65c10.67-7.32,18.87-10.29,22.26-7.28
				c4.17,3.73-0.07,15.86-9.98,31.49l-8.99,14.36l0,0c1.85-2.26,3.62-4.48,5.3-6.67c3.11,4.72,4.92,10.39,4.92,16.51
				c0,2.32-0.27,4.65-0.79,6.94c-2.22,0.55-4.51,0.82-6.8,0.82c-7.18,0-13.78-2.63-18.87-7.01c4.03-5.13,6.29-11.28,6.29-17.64
				c0-5.95-1.88-9.71-5.06-12.65c7.66,1.09,14.39,5.2,18.98,11.11c0.34-0.99,0.68-2.05,1.03-3.21c-5.91-6.77-14.53-11.04-24.1-11.04
				c-0.07,0-0.17,0-0.24,0c-2.15-1.3-4.58-2.5-7.21-3.8l-2.39-1.2v3.18l1.13,0.55c9.37,4.62,15.01,7.39,15.01,17.03
				c0,9.95-6.15,19.28-16.14,24.51v-9.57l0,0V49.88l-1.13,0.55c-1.64,0.82-3.18,1.57-4.58,2.32l0,0l0,0
				c-0.14,0.07-0.31,0.17-0.44,0.24l0,0l0,0c-6.33,3.38-9.98,6.74-9.98,14.46c0,7.01,3.04,13.68,8.31,18.84l0,0
				c0.92,0.92,1.95,1.78,3.01,2.6c0.07,0.03,0.1,0.07,0.17,0.14c0.34,0.24,0.68,0.51,1.03,0.75c0,0,0,0,0.03,0
				c0.34,0.24,0.72,0.48,1.09,0.72c0.07,0.03,0.17,0.1,0.24,0.14c0.27,0.17,0.58,0.34,0.85,0.51c0.1,0.07,0.21,0.1,0.31,0.17
				c0.38,0.21,0.75,0.41,1.13,0.62v3.21l-0.65-0.31c-3.97-1.98-7.42-4.55-10.22-7.56c-1.85,1.57-3.83,2.94-5.98,4.07
				c2.15,10.53,8.14,19.86,16.86,26.02v1.74l0,0v1.71l0.79-0.55c4.34-2.91,8.1-6.56,11.11-10.74c1.13,1.91,2.32,3.69,3.66,5.33
				c-0.99,2.32-2.19,4.55-3.52,6.67l0,0l0,0c20.34,20.34,36.89,30.57,42.81,24.62c3.86-3.86,1.33-13.37-5.85-25.68
				c0.34-0.38,0.55-0.89,0.55-1.47c0-1.23-0.99-2.22-2.22-2.22c-0.17,0-0.34,0.03-0.51,0.07c-2.5-3.93-6.63-9.95-9.57-13.98
				c-0.03,0.07-0.03,0.1-0.07,0.17c3.45,5.16,6.36,9.98,8.65,14.36c-0.44,0.41-0.72,0.99-0.72,1.64c0,1.23,0.99,2.22,2.22,2.22
				c0.14,0,0.24,0,0.38-0.03c4.03,8.72,5.06,15.11,2.26,17.64c-4.58,4.14-18.22-2.94-34.77-16.92c0.92-1.54,1.74-3.08,2.5-4.72l0,0
				c0.99,1.03,1.98,2.02,3.08,2.91l0.92,0.79l0.92-0.79c5.91-4.96,10.39-12,13.06-20.1c-1.03-0.17-1.98-0.38-2.84-0.55
				c-2.36,7.04-6.19,13.16-11.15,17.64c-3.08-2.77-5.74-6.26-7.93-10.29c2.7-4.38,4.68-9.2,5.81-14.33l0,0
				c3.73,1.54,7.83,2.39,12.1,2.39c0.82,0,1.64-0.03,2.46-0.1l0,0l0,0c-0.21,0.92-0.44,1.81-0.72,2.7
				c-1.98,0.21-4.03,0.41-6.12,0.58h0.27c-0.21,0-0.41,0.03-0.62,0.03C112.35,98.16,112.29,98.19,112.22,98.19z M85.55,117.34V95.12
				l0.65-0.31c3.97-1.98,7.42-4.55,10.22-7.56c1.85,1.57,3.83,2.94,5.98,4.07l0,0l0,0c-1.09,5.23-3.11,10.22-6.02,14.74l-0.31,0.51
				C93.28,110.7,89.72,114.4,85.55,117.34z"/>
			<circle class="st0" cx="64.83" cy="9.3" r="4.65"/>
			<ellipse class="st0" cx="103.16" cy="151" rx="3.11" ry="3.11"/>
			<circle class="st0" cx="156.73" cy="46.05" r="2.74"/>
			<path class="st0" d="M85.55,134.05v-13.23l-0.79-0.55c-4.34-2.91-8.07-6.56-11.11-10.74c-1.13,1.98-2.39,3.8-3.76,5.47
				c-0.65,0.79-1.3,1.54-1.98,2.26c0.62,1.37,1.3,2.67,2.05,3.97C53,135.7,38.95,143.11,34.3,138.91
				c-3.83-3.45-0.55-14.02,7.76-27.9l0.03-0.07c0.62-1.06,1.3-2.12,1.98-3.21l2.97-4.82c-3.38,4.65-8.31,11.86-10.56,15.56
				c-8.14,13.27-11.15,23.63-7.08,27.73c5.78,5.81,21.78-3.9,41.54-23.39l0,0l2.02-1.88l3.59-3.35c0,0-1.2,1.78-2.97,4.24
				c-0.03,0.03-0.07,0.1-0.1,0.14c-0.1,0.14-0.21,0.27-0.27,0.41c-0.03,0.07-0.1,0.14-0.14,0.21c-0.1,0.14-0.17,0.24-0.27,0.38
				c-0.31,0.41-0.58,0.82-0.92,1.27c3.42,4.99,7.76,9.33,12.92,12.75l0.79,0.51l0.79-0.51c4.92-3.25,9.09-7.35,12.45-12.07
				l-1.44-2.94C94.23,126.64,90.27,130.77,85.55,134.05z"/>
			<path class="st0" d="M77.14,50.9c0.21-0.1,0.41-0.24,0.62-0.34l-1.74-1.81c-1.95-2.05-3.9-4.03-5.81-5.91
				c-0.31,0.44-0.62,0.89-0.89,1.3C71.87,46.22,74.47,48.48,77.14,50.9z"/>
			<path class="st0" d="M46.33,84.34c0,2.32,0.27,4.68,0.79,6.94c2.22,0.55,4.51,0.82,6.8,0.82c7.18,0,13.78-2.63,18.87-7.01
				c0.03,0.03,0.07,0.07,0.07,0.1c-4.07-5.16-6.36-11.32-6.36-17.74c0-5.98,1.91-9.78,5.16-12.72c-0.03,0.03-0.03,0.03-0.07,0.07
				c-7.76,1.09-14.56,5.33-19.15,11.35c1.81,3.86,3.62,7.45,4.79,10.05l-3.21-4.68c-15.28-20.96-22.9-38.29-17.77-42.91
				c4.44-4,17.27,2.46,33.1,15.49c0.31-0.44,0.58-0.85,0.89-1.3c-4.65-4.58-9.16-8.58-13.4-11.97
				c-12.27-9.74-22.22-14.02-26.87-10.46C23,25.74,31.88,44.71,50.65,68.75C47.91,73.3,46.33,78.63,46.33,84.34z"/>
			<path class="st0" d="M60.35,98.29c-0.96,0.34-3.76,1.37-7.21,2.19c2.39,6.63,6.05,12.41,10.8,16.68
				c3.08-2.8,5.74-6.26,7.93-10.33c-2.74-4.41-4.72-9.27-5.81-14.33c0.03,0,0.07-0.03,0.07-0.03c-3.76,1.57-7.86,2.43-12.21,2.43
				c-0.85,0-1.71-0.03-2.56-0.1c0.03,0,0.07,0,0.1,0c0.17,0.72,0.38,1.47,0.58,2.19c-22.19-2.8-37.16-8.1-37.16-14.15
				c0-3.15,4.03-6.09,11.01-8.58c0.38,0.96,1.33,1.64,2.43,1.64c1.44,0,2.63-1.16,2.63-2.63c0-0.21-0.03-0.38-0.07-0.58
				c1.91-0.51,3.97-1.03,6.15-1.5l0,0c3.08-0.68,6.46-1.27,10.02-1.81c0.17-0.38,0.38-0.72,0.58-1.09
				c-3.73,0.51-7.28,1.06-10.6,1.74l0,0c-0.89,0.17-1.78,0.38-2.63,0.58c-1.4,0.34-2.77,0.65-4.07,0.99
				c-0.48-0.58-1.2-0.92-2.02-0.92c-1.3,0-2.39,0.96-2.6,2.22C14.39,76.32,8.96,80.18,9.06,85.24
				C9.24,94.15,28.56,99.49,60.35,98.29z"/>
		</g>
	</g>
</g>
</svg>
