<?xml version="1.0" encoding="utf-8"?>
<!-- Generator: Adobe Illustrator 24.1.2, SVG Export Plug-In . SVG Version: 6.00 Build 0)  -->
<svg version="1.1" xmlns="http://www.w3.org/2000/svg" xmlns:xlink="http://www.w3.org/1999/xlink" x="0px" y="0px"
	 viewBox="0 0 1304 357" style="enable-background:new 0 0 1304 357;" xml:space="preserve">
<style type="text/css">
	.st0{fill:#445F94;}
	.st1{fill:#F69628;}
	.st2{fill:#FFFFFF;}
	.st3{fill:#EABF0A;}
	.st4{fill:#FFCF00;}
	.st5{fill:#F9E385;}
	.st6{fill:#D63434;}
	.st7{fill:#193477;}
	.st8{clip-path:url(#SVGID_2_);}
	.st9{clip-path:url(#SVGID_4_);fill:#193477;}
	.st10{fill:#FFE45E;}
	.st11{fill:none;stroke:#FFFFFF;stroke-width:3.5;stroke-miterlimit:10;}
	.st12{fill:#0000FF;}
	.st13{fill:#F8B241;}
	.st14{fill:#F7F0F0;}
	.st15{fill:#F48876;}
	.st16{fill:#F4DBD9;}
	.st17{fill:#F79843;}
	.st18{fill:#F9F4F4;}
	.st19{fill:#F4D37D;}
	.st20{fill:#E58628;}
	.st21{fill:#EAD1D0;}
	.st22{clip-path:url(#SVGID_6_);}
	.st23{clip-path:url(#SVGID_12_);fill:#193477;}
	
		.st24{clip-path:url(#SVGID_12_);fill:none;stroke:#355A96;stroke-width:4.3934;stroke-miterlimit:10;stroke-dasharray:7.5315,11.2972;}
	.st25{clip-path:url(#SVGID_12_);fill:none;stroke:#355A96;stroke-width:4.3934;stroke-miterlimit:10;}
	.st26{clip-path:url(#SVGID_12_);fill:#355A96;}
	.st27{clip-path:url(#SVGID_12_);}
	.st28{fill:none;stroke:#355A96;stroke-width:4.3934;stroke-miterlimit:10;}
	.st29{fill:none;stroke:#355A96;stroke-width:4.3934;stroke-miterlimit:10;stroke-dasharray:7.7011,11.5517;}
	.st30{fill:none;stroke:#355A96;stroke-width:4.3934;stroke-miterlimit:10;stroke-dasharray:7.4634,11.1951;}
	.st31{clip-path:url(#SVGID_12_);fill:#264584;}
	.st32{fill:#264584;}
	.st33{clip-path:url(#SVGID_14_);}
	.st34{clip-path:url(#SVGID_16_);fill:#193477;}
	.st35{fill:none;stroke:#D63434;stroke-width:14.0914;stroke-miterlimit:10;}
	.st36{fill:none;stroke:#D63434;stroke-width:5.3293;stroke-miterlimit:10;}
	.st37{fill:#DBB449;}
	.st38{clip-path:url(#SVGID_18_);}
</style>
<g id="Layer_2">
</g>
<g id="Layer_1">
	<g>
		<path class="st32" d="M237.89,46.53c2.34-4.68,4.8-9.29,7.37-13.83C209.25,12.67,173-6.92,136.89-26.75L17.23-91.18l-4.71-2.49
			v22.13l115.65,61.15C164.75,8.56,201.2,27.76,237.89,46.53z"/>
		<path class="st32" d="M-22.96,168.59v17.67H207.3c-0.09-2.94-0.14-5.88-0.14-8.84c0-2.96,0.05-5.9,0.14-8.84H-22.96z"/>
		<path class="st32" d="M224.23,78.55c1.76-4.93,3.65-9.8,5.67-14.61c-38.18-15.47-76.55-30.48-114.81-45.75L12.51-21.76v13.94
			L9.24-2.28l99.19,37.77C147.04,49.82,185.55,64.42,224.23,78.55z"/>
		<path class="st32" d="M153.36-53.52c33.97,23.28,67.79,46.78,101.89,69.87c2.87-4.37,5.86-8.65,8.96-12.86
			c-33.26-24.25-66.8-48.11-100.19-72.18l-98.98-70.14H45.01H31.2l10.68,7.57L153.36-53.52z"/>
		<path class="st32" d="M12.51,366.42v21.07l108.02-46.32c36.73-16.11,73.56-31.98,110.22-48.26c-2.07-4.83-4.01-9.72-5.82-14.67
			c-37.3,15.09-74.41,30.6-111.64,45.87L12.51,366.42z"/>
		<path class="st32" d="M214.48,111.98c1.16-5.12,2.46-10.18,3.89-15.19c-39.75-10.68-79.62-20.87-119.42-31.34L-13.79,36.8
			l-10.3,17.47L94.46,83.44C134.47,92.93,174.42,102.7,214.48,111.98z"/>
		<path class="st32" d="M86.45,132.74c40.78,4.52,81.53,9.32,122.34,13.63c0.55-5.23,1.24-10.41,2.06-15.56
			c-40.68-5.73-81.43-10.96-122.14-16.48L-46.11,97.21l-3.08-0.37L-60,115.17l11.49,1.46L86.45,132.74z"/>
		<path class="st32" d="M266.12,353.92c-3.18-4.22-6.24-8.52-9.19-12.91c-32.03,23.35-63.81,47.05-95.73,70.54l-99.22,74.27h32.18
			l78.21-59.48C203.59,402.18,234.99,378.22,266.12,353.92z"/>
		<path class="st32" d="M246.57,324.43c-2.64-4.56-5.16-9.19-7.56-13.89c-34.92,19.4-69.62,39.2-104.45,58.76L16.62,436.84
			l-4.11,2.39v22.5l13.89-7.95l117.43-68.43C178.06,365.02,212.43,344.92,246.57,324.43z"/>
		<path class="st32" d="M218.88,259.81c-1.47-5.03-2.8-10.11-4.01-15.24c-39.12,10.48-78.11,21.41-117.17,32.09l-112.56,31.76
			l10.18,17.27l107.48-31.2C141.5,282.9,180.25,271.58,218.88,259.81z"/>
		<path class="st32" d="M211.1,225.62c-0.85-5.15-1.56-10.35-2.14-15.59c-40.34,5.65-80.61,11.77-120.91,17.62l-134.33,20.64
			l-3.66,0.59l10.67,18.1l130.2-21.02C130.98,239.16,171.08,232.63,211.1,225.62z"/>
	</g>
	<g>
		<path class="st32" d="M1066.11,46.53c-2.34-4.68-4.8-9.29-7.37-13.83c36.01-20.03,72.25-39.62,108.36-59.45l119.67-64.43
			l4.71-2.49v22.13l-115.65,61.15C1139.25,8.56,1102.8,27.76,1066.11,46.53z"/>
		<path class="st32" d="M1326.96,168.59v17.67H1096.7c0.09-2.94,0.14-5.88,0.14-8.84c0-2.96-0.05-5.9-0.14-8.84H1326.96z"/>
		<path class="st32" d="M1079.77,78.55c-1.76-4.93-3.65-9.8-5.67-14.61c38.18-15.47,76.55-30.48,114.81-45.75l102.58-39.95v13.94
			l3.27,5.54l-99.19,37.77C1156.96,49.82,1118.45,64.42,1079.77,78.55z"/>
		<path class="st32" d="M1150.64-53.52c-33.97,23.28-67.79,46.78-101.89,69.87c-2.87-4.37-5.86-8.65-8.96-12.86
			c33.26-24.25,66.8-48.11,100.19-72.18l98.98-70.14h20.02h13.82l-10.68,7.57L1150.64-53.52z"/>
		<path class="st32" d="M1291.49,366.42v21.07l-108.02-46.32c-36.73-16.11-73.56-31.98-110.22-48.26c2.07-4.83,4.01-9.72,5.82-14.67
			c37.3,15.09,74.41,30.6,111.64,45.87L1291.49,366.42z"/>
		<path class="st32" d="M1089.52,111.98c-1.16-5.12-2.46-10.18-3.89-15.19c39.75-10.68,79.62-20.87,119.42-31.34l112.75-28.65
			l10.3,17.47l-118.55,29.17C1169.53,92.93,1129.58,102.7,1089.52,111.98z"/>
		<path class="st32" d="M1217.55,132.74c-40.78,4.52-81.53,9.32-122.34,13.63c-0.55-5.23-1.24-10.41-2.06-15.56
			c40.68-5.73,81.43-10.96,122.14-16.48l134.83-17.12l3.08-0.37l10.8,18.33l-11.49,1.46L1217.55,132.74z"/>
		<path class="st32" d="M1037.88,353.92c3.18-4.22,6.24-8.52,9.19-12.91c32.03,23.35,63.81,47.05,95.73,70.54l99.22,74.27h-32.18
			l-78.21-59.48C1100.41,402.18,1069.01,378.22,1037.88,353.92z"/>
		<path class="st32" d="M1057.43,324.43c2.64-4.56,5.16-9.19,7.56-13.89c34.92,19.4,69.62,39.2,104.45,58.76l117.94,67.54l4.11,2.39
			v22.5l-13.89-7.95l-117.43-68.43C1125.94,365.02,1091.57,344.92,1057.43,324.43z"/>
		<path class="st32" d="M1085.12,259.81c1.47-5.03,2.8-10.11,4.01-15.24c39.12,10.48,78.11,21.41,117.17,32.09l112.56,31.76
			l-10.18,17.27l-107.48-31.2C1162.5,282.9,1123.75,271.58,1085.12,259.81z"/>
		<path class="st32" d="M1092.9,225.62c0.85-5.15,1.56-10.35,2.14-15.59c40.34,5.65,80.6,11.77,120.91,17.62l134.33,20.64l3.66,0.59
			l-10.67,18.1l-130.2-21.02C1173.02,239.16,1132.92,232.63,1092.9,225.62z"/>
	</g>
</g>
</svg>
